G04*
G04 #@! TF.GenerationSoftware,Altium Limited,Altium Designer,19.1.8 (144)*
G04*
G04 Layer_Color=16711935*
%FSLAX44Y44*%
%MOMM*%
G71*
G01*
G75*
%ADD16C,2.0000*%
%ADD24R,4.1500X1.9500*%
%ADD29R,2.1500X2.1500*%
%ADD30C,2.1500*%
%ADD31R,2.1500X2.1500*%
%ADD32P,2.1107X8X22.5*%
%ADD33C,1.9500*%
%ADD34C,0.1500*%
G36*
X0Y60000D02*
X60000D01*
Y0D01*
X60000Y0D01*
X30000D01*
Y30000D01*
X0D01*
X0Y60000D01*
D02*
G37*
G36*
X60000Y440000D02*
Y380000D01*
X0D01*
X0Y380000D01*
Y410000D01*
X30000D01*
Y440000D01*
X60000Y440000D01*
D02*
G37*
G36*
X861000Y0D02*
Y60000D01*
X921000D01*
X921000Y60000D01*
Y30000D01*
X891000D01*
Y0D01*
X861000Y0D01*
D02*
G37*
G36*
X921000Y380000D02*
X861000D01*
Y440000D01*
X861000Y440000D01*
X891000D01*
Y410000D01*
X921000D01*
X921000Y380000D01*
D02*
G37*
D16*
X911000Y410000D02*
G03*
X911000Y410000I-20000J0D01*
G01*
Y30000D02*
G03*
X911000Y30000I-20000J0D01*
G01*
X50000Y30000D02*
G03*
X50000Y30000I-20000J0D01*
G01*
X50000Y410000D02*
G03*
X50000Y410000I-20000J0D01*
G01*
D24*
X32250Y334350D02*
D03*
Y308950D02*
D03*
Y283550D02*
D03*
Y258150D02*
D03*
Y232750D02*
D03*
Y207350D02*
D03*
Y181950D02*
D03*
Y156550D02*
D03*
Y131150D02*
D03*
Y105750D02*
D03*
D29*
X827300Y245400D02*
D03*
X133000Y258100D02*
D03*
D30*
X827300Y194600D02*
D03*
Y220000D02*
D03*
X852700D02*
D03*
Y194600D02*
D03*
Y245400D02*
D03*
X222600Y70000D02*
D03*
X248000D02*
D03*
X133000Y207300D02*
D03*
Y232700D02*
D03*
Y181900D02*
D03*
D31*
X273400Y70000D02*
D03*
D32*
X348700D02*
D03*
X785800Y370000D02*
D03*
X682800D02*
D03*
X577300Y370000D02*
D03*
X305000Y370000D02*
D03*
X622200Y70000D02*
D03*
X758900Y70000D02*
D03*
X142300D02*
D03*
D33*
X374100Y70000D02*
D03*
X399500D02*
D03*
X424900D02*
D03*
X450300D02*
D03*
X475700D02*
D03*
X501100D02*
D03*
X526500D02*
D03*
X551900D02*
D03*
X577300D02*
D03*
X735000Y370000D02*
D03*
X760400D02*
D03*
X632000D02*
D03*
X657400D02*
D03*
X551900Y370000D02*
D03*
X526500D02*
D03*
X501100D02*
D03*
X475700D02*
D03*
X450300D02*
D03*
X424900D02*
D03*
X399500D02*
D03*
X374100D02*
D03*
X348700D02*
D03*
X254200Y370000D02*
D03*
X279600D02*
D03*
X723800Y70000D02*
D03*
X647600D02*
D03*
X673000D02*
D03*
X698400D02*
D03*
X784300Y70000D02*
D03*
X809700D02*
D03*
X835100D02*
D03*
X167700D02*
D03*
D34*
X891000Y410000D02*
D03*
X891000Y30000D02*
D03*
X30000Y30000D02*
D03*
Y410000D02*
D03*
M02*
