G04*
G04 #@! TF.GenerationSoftware,Altium Limited,Altium Designer,19.1.8 (144)*
G04*
G04 Layer_Physical_Order=1*
G04 Layer_Color=255*
%FSLAX44Y44*%
%MOMM*%
G71*
G01*
G75*
%ADD10C,0.3000*%
%ADD12C,0.2500*%
%ADD36R,0.8500X0.8500*%
%ADD37R,0.8500X0.8500*%
%ADD38R,0.6000X0.3000*%
%ADD39R,0.3000X0.6000*%
%ADD40R,3.4500X3.4500*%
%ADD41R,0.6000X0.8000*%
%ADD42R,1.2000X1.6000*%
%ADD43R,4.0000X1.8000*%
%ADD44R,1.1000X1.2000*%
%ADD45R,0.6000X1.4000*%
%ADD46R,0.6500X1.2000*%
%ADD47R,0.8000X1.0000*%
%ADD48C,0.4000*%
%ADD49C,0.5000*%
%ADD50C,0.7000*%
%ADD51C,1.0000*%
%ADD52C,0.6000*%
%ADD53R,2.0000X2.0000*%
%ADD54C,2.0000*%
%ADD55R,2.0000X2.0000*%
%ADD56P,1.9483X8X22.5*%
%ADD57C,1.8000*%
%ADD58C,0.7000*%
G36*
X358000Y380500D02*
X357500Y380000D01*
X358000D01*
Y354855D01*
X383477D01*
X446932Y291401D01*
Y265000D01*
X447187Y263718D01*
Y255000D01*
X445314D01*
X433791Y266523D01*
X433031Y267031D01*
Y267350D01*
X432366D01*
X431268Y267569D01*
X412230D01*
X411965Y267965D01*
X410146Y269181D01*
X408000Y269608D01*
X405854Y269181D01*
X404035Y267965D01*
X403624Y267350D01*
X400000D01*
X399608Y267742D01*
Y298000D01*
X399500Y298541D01*
Y303381D01*
X395141D01*
X394000Y303608D01*
X392859Y303381D01*
X381238D01*
X381000Y303143D01*
X339501Y344641D01*
Y380000D01*
X312250D01*
X310750Y381500D01*
X299250D01*
X297750Y380000D01*
X285459D01*
X285400Y380045D01*
X282602Y381204D01*
X279600Y381599D01*
X276598Y381204D01*
X273800Y380045D01*
X273741Y380000D01*
X269600D01*
X271398Y378202D01*
X269555Y375800D01*
X268396Y373002D01*
X268001Y370000D01*
X268396Y366998D01*
X269555Y364200D01*
X271398Y361798D01*
X273800Y359955D01*
X276598Y358796D01*
X279600Y358401D01*
X282602Y358796D01*
X284323Y359509D01*
X365922Y277911D01*
Y255000D01*
X362000D01*
Y232088D01*
X340250D01*
X338494Y231739D01*
X337006Y230744D01*
X300849Y194588D01*
X286298D01*
Y205299D01*
X289798D01*
X290854Y204593D01*
X293000Y204166D01*
X295146Y204593D01*
X296965Y205809D01*
X298181Y207628D01*
X298608Y209774D01*
X298181Y211920D01*
X296965Y213739D01*
X295146Y214955D01*
X293000Y215382D01*
X290854Y214955D01*
X290136Y214475D01*
X286298D01*
Y232809D01*
X295988Y242500D01*
X318000D01*
X321496Y239004D01*
X322132D01*
X323245Y238261D01*
X325000Y237912D01*
X341967D01*
X342854Y237319D01*
X345000Y236892D01*
X347146Y237319D01*
X348965Y238535D01*
X349279Y239004D01*
X351000D01*
Y255000D01*
X350751D01*
X345016Y260735D01*
X315882D01*
X315396Y261908D01*
X328245Y274756D01*
X329239Y276245D01*
X329589Y278001D01*
Y299967D01*
X330181Y300854D01*
X330608Y303000D01*
X330181Y305146D01*
X328966Y306965D01*
X327146Y308181D01*
X325000Y308608D01*
X322854Y308181D01*
X321035Y306965D01*
X319820Y305146D01*
X319393Y303000D01*
X319735Y301281D01*
X318667Y300467D01*
X317742Y301085D01*
X315596Y301512D01*
X313450Y301085D01*
X311630Y299870D01*
X310415Y298050D01*
X309988Y295904D01*
X310415Y293758D01*
X311007Y292871D01*
Y290646D01*
X279536Y259175D01*
X266664D01*
X260175Y265664D01*
Y284729D01*
X260500Y285054D01*
X278113D01*
Y337887D01*
X276000Y340000D01*
X177000D01*
X177000Y388120D01*
X261480D01*
X261480Y388120D01*
X358000Y388120D01*
Y380500D01*
D02*
G37*
G36*
X746485Y354855D02*
X808707Y354855D01*
Y140000D01*
X842000D01*
Y30000D01*
X612000D01*
Y56700D01*
X715000D01*
Y76000D01*
X565000Y226000D01*
X537581Y226000D01*
Y317881D01*
X616000Y317881D01*
Y314720D01*
X617173Y315206D01*
X632000Y300379D01*
Y199500D01*
X651000Y199500D01*
X651000Y182000D01*
X675000D01*
X675000Y240000D01*
X669220D01*
X668500Y241040D01*
X668544Y241270D01*
X668888Y243000D01*
Y245000D01*
X669300D01*
Y257000D01*
X659300D01*
Y245000D01*
X658764Y243952D01*
X654811Y240000D01*
X649001D01*
X649000Y303000D01*
X622000Y330000D01*
Y379800D01*
X622200Y380000D01*
X643000D01*
Y354855D01*
X725000D01*
Y382000D01*
X746485D01*
X746485Y354855D01*
D02*
G37*
G36*
X270439Y289848D02*
X270206Y289286D01*
X259161D01*
X258860Y290555D01*
X259250Y290751D01*
Y295000D01*
X252000D01*
Y298000D01*
X249000D01*
Y305250D01*
X246588D01*
Y309967D01*
X247181Y310854D01*
X247608Y313000D01*
X247181Y315146D01*
X245965Y316965D01*
X244146Y318181D01*
X242000Y318608D01*
X239854Y318181D01*
X238035Y316965D01*
X236819Y315146D01*
X236392Y313000D01*
X236819Y310854D01*
X237412Y309967D01*
Y305250D01*
X235000D01*
Y298000D01*
X232000D01*
Y295000D01*
X224750D01*
Y290750D01*
X225139Y290555D01*
X224839Y289286D01*
X214000D01*
Y317000D01*
X213000Y316000D01*
X172000D01*
X172000Y336100D01*
X270439D01*
Y289848D01*
D02*
G37*
G36*
X446222Y335503D02*
X446222Y335503D01*
X446532Y333942D01*
X447416Y332619D01*
X492276Y287759D01*
X491858Y286381D01*
X490853Y286181D01*
X489034Y284965D01*
X487818Y283146D01*
X487391Y281000D01*
X487544Y280231D01*
X476921Y269608D01*
X464069D01*
Y298340D01*
X464389Y298819D01*
X464699Y300379D01*
X464389Y301940D01*
X463504Y303263D01*
X428978Y337789D01*
Y354900D01*
X446222D01*
Y335503D01*
D02*
G37*
G36*
X320412Y285569D02*
Y279901D01*
X301246Y260735D01*
X295732D01*
X295247Y261908D01*
X318840Y285501D01*
X319142Y285954D01*
X320412Y285569D01*
D02*
G37*
G36*
X837000Y393000D02*
Y185000D01*
X817000D01*
Y393000D01*
X616000D01*
Y328000D01*
X645000Y299000D01*
X645000Y254250D01*
X643000D01*
Y247000D01*
X637000D01*
Y254250D01*
X635500D01*
Y303381D01*
X615881Y323000D01*
X546583D01*
X546583Y350417D01*
X542145Y354855D01*
X542145Y380000D01*
X587000Y380000D01*
X587000Y353500D01*
X582850Y349350D01*
Y335503D01*
X594000Y335503D01*
X594000Y393000D01*
X172000Y393000D01*
Y138000D01*
X123000Y138000D01*
X123000Y53000D01*
X237000Y53000D01*
Y80992D01*
X258270D01*
Y27000D01*
X603000Y27000D01*
Y130000D01*
X611102D01*
X612000Y129102D01*
X612000Y122898D01*
X611102Y122000D01*
X611000D01*
X611000Y87000D01*
X608600D01*
X608000Y86400D01*
Y27000D01*
X856000D01*
X856000Y5000D01*
X85000Y5000D01*
X85000Y126000D01*
X118000Y159000D01*
X152000Y159000D01*
X152000Y248000D01*
X123000Y248000D01*
X123000Y435000D01*
X837000Y435000D01*
X837000Y393000D01*
D02*
G37*
G36*
X118558Y239760D02*
X116730Y239520D01*
X115027Y238814D01*
X113565Y237692D01*
X86007Y210135D01*
X84886Y208673D01*
X84180Y206970D01*
X83940Y205142D01*
Y163925D01*
X64910Y144895D01*
X60105D01*
X60000Y145000D01*
Y177462D01*
X71817D01*
X72704Y176869D01*
X74850Y176442D01*
X76996Y176869D01*
X78815Y178085D01*
X80031Y179904D01*
X80457Y182050D01*
X80031Y184196D01*
X78815Y186015D01*
X76996Y187231D01*
X74850Y187658D01*
X72704Y187231D01*
X71817Y186638D01*
X60000D01*
Y252492D01*
X75000D01*
X77146Y252919D01*
X78965Y254135D01*
X80181Y255954D01*
X80608Y258100D01*
X80181Y260246D01*
X78965Y262065D01*
X77146Y263281D01*
X75000Y263708D01*
X60000D01*
Y350000D01*
X5000D01*
Y375000D01*
X65000D01*
Y435000D01*
X66000D01*
X66000Y435000D01*
X118558D01*
Y239760D01*
D02*
G37*
G36*
X434500Y209000D02*
Y209000D01*
X444500D01*
Y209000D01*
X445852Y209000D01*
X446750Y208102D01*
Y206157D01*
X399000Y206157D01*
X399000Y205000D01*
Y176000D01*
X387000D01*
Y209000D01*
X434500Y209000D01*
D02*
G37*
G36*
X130660Y195000D02*
X133000Y194692D01*
X135340Y195000D01*
X149961Y195000D01*
Y161039D01*
X118000Y161039D01*
X117220Y160884D01*
X116558Y160442D01*
X116558Y160442D01*
X85000Y128884D01*
D01*
X83558Y127442D01*
X83116Y126780D01*
X82961Y126000D01*
X82961Y102500D01*
X81276D01*
X80965Y102965D01*
X79146Y104181D01*
X77000Y104608D01*
X74854Y104181D01*
X73035Y102965D01*
X72569Y102500D01*
X67000D01*
X61250Y96750D01*
X52000Y96750D01*
Y115000D01*
X58750D01*
X75050Y131300D01*
X75300D01*
X107000Y163000D01*
X107583D01*
X107854Y162819D01*
X110000Y162392D01*
X112146Y162819D01*
X112417Y163000D01*
X114000D01*
Y164087D01*
X115181Y165854D01*
X115608Y168000D01*
X115181Y170146D01*
X114651Y170940D01*
Y195000D01*
X130660Y195000D01*
D02*
G37*
G36*
X442000Y201500D02*
X442000D01*
Y195000D01*
X431589Y184589D01*
X415000D01*
Y158000D01*
X403000D01*
Y204000D01*
X442000D01*
Y201500D01*
D02*
G37*
G36*
X456931Y162233D02*
Y155776D01*
X456766Y155645D01*
X456654Y155625D01*
X455806Y156490D01*
X455908Y157000D01*
X455481Y159146D01*
X454265Y160965D01*
X453614Y161401D01*
Y161449D01*
X453959Y162294D01*
X454567Y162505D01*
X455932Y162776D01*
X456931Y162233D01*
D02*
G37*
G36*
X262500Y190371D02*
Y183000D01*
X284000D01*
Y185412D01*
X302750D01*
X304506Y185761D01*
X305994Y186756D01*
X310327Y191088D01*
X311500Y190602D01*
Y183000D01*
X315596D01*
Y137000D01*
X258270D01*
X257000Y137000D01*
Y137000D01*
X250000Y130000D01*
X252730Y132730D01*
X254000Y132204D01*
Y113000D01*
X267000D01*
Y93000D01*
X228000D01*
Y113000D01*
X240500D01*
Y131841D01*
X241673Y132327D01*
X237000Y137000D01*
X175750D01*
Y199000D01*
X253871D01*
X262500Y190371D01*
D02*
G37*
G36*
X399500Y152500D02*
X422875D01*
Y120323D01*
X421605Y119797D01*
X421402Y120000D01*
X387000D01*
X387000Y167859D01*
X399500D01*
X399500Y152500D01*
D02*
G37*
G36*
X357000Y169000D02*
X358000Y168000D01*
X357000Y167000D01*
Y112865D01*
X325135D01*
X325000Y113000D01*
Y137000D01*
X315596D01*
X315596Y183000D01*
X321500D01*
Y188511D01*
X334489Y201500D01*
X357000D01*
Y169000D01*
D02*
G37*
G36*
X315596Y132730D02*
X315596Y93000D01*
X282000Y93000D01*
X282000Y118000D01*
X259779D01*
X258885Y118902D01*
X259000Y132082D01*
Y132730D01*
X315596Y132730D01*
D02*
G37*
G36*
X856000Y375000D02*
X916000D01*
Y65000D01*
X860000D01*
X860000Y165000D01*
X842000Y164999D01*
X842000Y435000D01*
X856000Y435000D01*
Y375000D01*
D02*
G37*
G36*
X357500Y60000D02*
X340250D01*
X340250Y91242D01*
X330000Y80992D01*
Y27000D01*
X310000D01*
X310000Y81602D01*
X326000Y97602D01*
X326000Y108000D01*
X357500D01*
Y60000D01*
D02*
G37*
G36*
X235600Y118000D02*
X216850D01*
Y87000D01*
Y81000D01*
X233000D01*
Y60000D01*
X195000D01*
Y132000D01*
X203318D01*
X203600Y132282D01*
X235600D01*
Y118000D01*
D02*
G37*
G36*
X190000Y137000D02*
Y60000D01*
X159000D01*
Y133500D01*
X175750D01*
Y136102D01*
X176648Y137000D01*
X190000Y137000D01*
D02*
G37*
G36*
X152000Y60000D02*
X130000D01*
Y133500D01*
X152000D01*
Y60000D01*
D02*
G37*
G36*
X523591Y185419D02*
X524000Y184589D01*
X524000Y184469D01*
X524000Y181589D01*
X524000Y136391D01*
Y182073D01*
X524000Y182589D01*
Y183698D01*
X524000Y184310D01*
X524884Y184589D01*
X525705Y184589D01*
X526412Y183882D01*
Y145033D01*
X525819Y144146D01*
X525392Y142000D01*
X525819Y139854D01*
X527035Y138035D01*
X528854Y136819D01*
X531000Y136392D01*
X533146Y136819D01*
X534872Y137972D01*
X535208Y138085D01*
X535999D01*
X536034Y138034D01*
X537853Y136818D01*
X539999Y136391D01*
X542145Y136818D01*
X543964Y138034D01*
X544000Y138087D01*
X544793D01*
X545126Y137973D01*
X546854Y136819D01*
X549000Y136392D01*
X551146Y136819D01*
X552965Y138035D01*
X554181Y139854D01*
X554608Y142000D01*
X554181Y144146D01*
X553588Y145033D01*
Y184589D01*
X563925D01*
X599000Y149514D01*
Y30000D01*
X337006D01*
Y53996D01*
X427000D01*
Y58677D01*
X427902Y58796D01*
X430700Y59955D01*
X433102Y61798D01*
X434945Y64200D01*
X436104Y66998D01*
X436499Y70000D01*
X436104Y73002D01*
X434945Y75799D01*
X433102Y78202D01*
X430700Y80045D01*
X427902Y81204D01*
X427000Y81323D01*
Y182550D01*
X431589D01*
X432369Y182705D01*
X433031Y183147D01*
X433031Y183147D01*
X435601Y185718D01*
X438504D01*
X438686Y185496D01*
Y180941D01*
X438232Y180261D01*
X437922Y178700D01*
Y109000D01*
X437922Y109000D01*
X438232Y107439D01*
X439116Y106116D01*
X446222Y99010D01*
Y80758D01*
X444500Y80045D01*
X442098Y78202D01*
X440255Y75799D01*
X439096Y73002D01*
X438701Y70000D01*
X439096Y66998D01*
X440255Y64200D01*
X442098Y61798D01*
X444500Y59955D01*
X447298Y58796D01*
X450300Y58401D01*
X453302Y58796D01*
X456100Y59955D01*
X458502Y61798D01*
X460345Y64200D01*
X461504Y66998D01*
X461899Y70000D01*
X461504Y73002D01*
X460345Y75799D01*
X458502Y78202D01*
X456100Y80045D01*
X454378Y80758D01*
Y100699D01*
X454378Y100700D01*
X454068Y102260D01*
X453184Y103583D01*
X446078Y110689D01*
Y142250D01*
X456750D01*
X456931Y141325D01*
Y107672D01*
X456931Y107671D01*
Y87058D01*
X456732Y86761D01*
X456422Y85200D01*
X456732Y83639D01*
X457616Y82316D01*
X465209Y74723D01*
X464496Y73002D01*
X464101Y70000D01*
X464496Y66998D01*
X465655Y64200D01*
X467498Y61798D01*
X469900Y59955D01*
X472698Y58796D01*
X475700Y58401D01*
X478702Y58796D01*
X481500Y59955D01*
X483902Y61798D01*
X485745Y64200D01*
X486904Y66998D01*
X487299Y70000D01*
X486904Y73002D01*
X485745Y75799D01*
X483902Y78202D01*
X481500Y80045D01*
X478702Y81204D01*
X475700Y81599D01*
X472698Y81204D01*
X470977Y80491D01*
X464068Y87399D01*
Y99957D01*
X464992Y100340D01*
X490609Y74723D01*
X489896Y73002D01*
X489501Y70000D01*
X489896Y66998D01*
X491055Y64200D01*
X492898Y61798D01*
X495300Y59955D01*
X498098Y58796D01*
X501100Y58401D01*
X504102Y58796D01*
X506900Y59955D01*
X509302Y61798D01*
X511145Y64200D01*
X512304Y66998D01*
X512699Y70000D01*
X512304Y73002D01*
X511145Y75799D01*
X509302Y78202D01*
X506900Y80045D01*
X504102Y81204D01*
X501100Y81599D01*
X498098Y81204D01*
X496377Y80491D01*
X469068Y107799D01*
Y120357D01*
X469992Y120740D01*
X516009Y74723D01*
X515296Y73002D01*
X514901Y70000D01*
X515296Y66998D01*
X516455Y64200D01*
X518298Y61798D01*
X520700Y59955D01*
X523498Y58796D01*
X526500Y58401D01*
X529502Y58796D01*
X532300Y59955D01*
X534702Y61798D01*
X536545Y64200D01*
X537704Y66998D01*
X538099Y70000D01*
X537704Y73002D01*
X536545Y75799D01*
X534702Y78202D01*
X532300Y80045D01*
X529502Y81204D01*
X526500Y81599D01*
X523498Y81204D01*
X521777Y80491D01*
X474069Y128199D01*
Y140757D01*
X474993Y141140D01*
X541409Y74723D01*
X540696Y73002D01*
X540301Y70000D01*
X540696Y66998D01*
X541855Y64200D01*
X543698Y61798D01*
X546100Y59955D01*
X548898Y58796D01*
X551900Y58401D01*
X554902Y58796D01*
X557700Y59955D01*
X560102Y61798D01*
X561945Y64200D01*
X563104Y66998D01*
X563499Y70000D01*
X563104Y73002D01*
X561945Y75799D01*
X560102Y78202D01*
X557700Y80045D01*
X554902Y81204D01*
X551900Y81599D01*
X548898Y81204D01*
X547177Y80491D01*
X479068Y148599D01*
Y175200D01*
X478814Y176482D01*
Y185718D01*
X523293D01*
X523591Y185419D01*
D02*
G37*
G36*
X837000Y160000D02*
X856000D01*
Y27000D01*
X845000D01*
Y64011D01*
X845145Y64200D01*
X846304Y66998D01*
X846699Y70000D01*
X846304Y73002D01*
X845145Y75800D01*
X845000Y75989D01*
Y145000D01*
X817000D01*
Y185000D01*
X837000D01*
Y160000D01*
D02*
G37*
%LPC*%
G36*
X616000Y303000D02*
Y300379D01*
D01*
Y303000D01*
D02*
G37*
G36*
X616000Y251710D02*
Y250605D01*
D01*
Y251710D01*
D02*
G37*
G36*
Y243952D02*
Y243000D01*
D01*
Y243952D01*
D02*
G37*
G36*
X734250Y253250D02*
X721750D01*
Y240750D01*
X720791Y240000D01*
X720000D01*
Y237500D01*
X733000D01*
Y202500D01*
X720000D01*
Y187902D01*
X721750D01*
Y186750D01*
X734250D01*
Y187902D01*
X746485D01*
X748436Y188290D01*
X750090Y189395D01*
X753605Y192910D01*
X754710Y194564D01*
X755098Y196515D01*
Y199500D01*
X785800Y199500D01*
X785800Y240000D01*
X755098D01*
Y242500D01*
X754710Y244451D01*
X753605Y246105D01*
X749105Y250605D01*
X747451Y251710D01*
X745500Y252098D01*
X734250D01*
Y253250D01*
D02*
G37*
G36*
X692000Y156608D02*
X689854Y156181D01*
X688035Y154965D01*
X686819Y153146D01*
X686392Y151000D01*
X686819Y148854D01*
X688035Y147035D01*
X689854Y145819D01*
X692000Y145392D01*
X694146Y145819D01*
X695033Y146412D01*
X740099D01*
X790000Y96511D01*
X790000Y86000D01*
X735000D01*
Y56000D01*
X825000D01*
Y85000D01*
X819000Y91000D01*
Y107000D01*
X792489Y107000D01*
X745244Y154244D01*
X743756Y155239D01*
X742000Y155588D01*
X695033D01*
X694146Y156181D01*
X692000Y156608D01*
D02*
G37*
G36*
X259250Y305250D02*
X255000D01*
Y301000D01*
X259250D01*
Y305250D01*
D02*
G37*
G36*
X229000Y305250D02*
X224750D01*
Y301000D01*
X229000D01*
Y305250D01*
D02*
G37*
%LPD*%
D10*
X460500Y85200D02*
Y107671D01*
Y85200D02*
X460500Y85200D01*
Y107671D02*
Y175000D01*
X460500Y107671D02*
X460500Y107671D01*
X509500Y196500D02*
X513000Y193000D01*
X480500Y196500D02*
X509500D01*
X513000Y222500D02*
X524000Y233500D01*
X506996Y227500D02*
X518500Y239004D01*
X503000Y232500D02*
X513000Y242500D01*
X408000Y243503D02*
Y255000D01*
X431268Y264000D02*
X445500Y249768D01*
X408000Y264000D02*
X431268D01*
X460500Y300259D02*
X460621Y300379D01*
X460500Y265000D02*
Y300259D01*
X455500Y265000D02*
Y296500D01*
X450500Y265000D02*
Y293600D01*
X370000Y238500D02*
X381000Y227500D01*
X366000D02*
X381000D01*
X408000D01*
X379100Y237500D02*
X384100Y232500D01*
X408001D01*
X408000Y243500D02*
X418900D01*
X424900Y237500D01*
X378000Y206157D02*
X384343Y212500D01*
X372000Y207500D02*
X382000Y217500D01*
X513000D02*
X567300D01*
X513000Y212500D02*
X562400D01*
X535250Y207500D02*
X557000D01*
X513000Y202500D02*
X551782D01*
X535250Y207500D02*
X535250Y207500D01*
X513000Y207500D02*
X535250D01*
X366000Y209400D02*
X379100Y222500D01*
X475500Y146400D02*
Y175200D01*
X470500Y126000D02*
Y175000D01*
X465500Y105600D02*
Y175000D01*
D12*
X453999Y184217D02*
X455500Y185718D01*
X453999Y168000D02*
Y184217D01*
X446750Y165724D02*
Y184589D01*
Y165724D02*
X450300Y162174D01*
Y157000D02*
Y162174D01*
X442000Y178700D02*
Y185496D01*
X455500Y185718D02*
Y196500D01*
X480500Y247407D02*
X483657Y250564D01*
X480500Y243500D02*
Y247407D01*
X483657Y250564D02*
X501099D01*
X486500Y232500D02*
X503000D01*
X492838Y280839D02*
X492999D01*
X445500Y243500D02*
Y249768D01*
X465500Y253501D02*
X492838Y280839D01*
X465500Y243500D02*
Y253501D01*
X470500Y250564D02*
X491936Y272000D01*
X492999D01*
Y280839D02*
Y281000D01*
X482593Y257000D02*
X498000D01*
X475500Y249907D02*
X482593Y257000D01*
X498000D02*
X500999Y259999D01*
X470500Y243500D02*
Y250564D01*
X475500Y243500D02*
Y249907D01*
X495536Y237500D02*
X497000Y238965D01*
Y240000D01*
X486500Y237500D02*
X495536D01*
X442000Y185496D02*
X445500Y188996D01*
X460500Y175000D02*
Y196500D01*
X465500Y175000D02*
Y196500D01*
X445500Y188996D02*
Y196500D01*
X446750Y184589D02*
X450500Y188339D01*
Y196500D01*
X486500Y227500D02*
X506996D01*
X408001Y232500D02*
X439500D01*
X424900Y237500D02*
X439500D01*
X408001Y232500D02*
X408001Y232500D01*
X408000Y227500D02*
X439500D01*
X513000Y207500D02*
X513000Y207500D01*
X486500Y207500D02*
X513000D01*
X486500Y217500D02*
X513000D01*
X486500Y212500D02*
X513000D01*
X486500Y202500D02*
X513000D01*
X379100Y222500D02*
X439500D01*
X382000Y217500D02*
X439500D01*
X384343Y212500D02*
X439500D01*
X475500Y175200D02*
Y196500D01*
X470500Y175000D02*
Y196500D01*
X460500Y243500D02*
Y265000D01*
X450500Y243500D02*
Y265000D01*
X486500Y222500D02*
X513000D01*
X455500Y243500D02*
Y265000D01*
D36*
X287000Y128000D02*
D03*
Y142000D02*
D03*
X574800Y314000D02*
D03*
Y328000D02*
D03*
X551900Y314000D02*
D03*
Y328000D02*
D03*
X210000Y127000D02*
D03*
Y141000D02*
D03*
X728000Y193000D02*
D03*
Y207000D02*
D03*
X640000Y207000D02*
D03*
Y193000D02*
D03*
X450500Y148500D02*
D03*
Y134500D02*
D03*
X232000Y298000D02*
D03*
Y284000D02*
D03*
X220750Y245000D02*
D03*
Y231000D02*
D03*
X220750Y209000D02*
D03*
Y195000D02*
D03*
X640000Y233000D02*
D03*
Y247000D02*
D03*
X728000D02*
D03*
Y233000D02*
D03*
X252000Y298001D02*
D03*
Y284000D02*
D03*
X244000Y213000D02*
D03*
Y227000D02*
D03*
X348700Y104000D02*
D03*
Y118000D02*
D03*
X330000Y104000D02*
D03*
Y118000D02*
D03*
D37*
X622000Y126000D02*
D03*
X608000D02*
D03*
X809000Y98707D02*
D03*
X823000D02*
D03*
X764000Y233000D02*
D03*
X750000D02*
D03*
X764000Y207000D02*
D03*
X750000D02*
D03*
X408001Y163001D02*
D03*
X394001D02*
D03*
X408000Y199000D02*
D03*
X394000D02*
D03*
X408000Y181000D02*
D03*
X394000D02*
D03*
X408000Y243500D02*
D03*
X394000D02*
D03*
D38*
X439500Y237500D02*
D03*
Y232500D02*
D03*
Y227500D02*
D03*
Y222500D02*
D03*
Y217500D02*
D03*
Y212500D02*
D03*
Y207500D02*
D03*
Y202500D02*
D03*
X486500D02*
D03*
Y207500D02*
D03*
Y212500D02*
D03*
Y217500D02*
D03*
Y222500D02*
D03*
Y227500D02*
D03*
Y232500D02*
D03*
Y237500D02*
D03*
D39*
X445500Y196500D02*
D03*
X450500D02*
D03*
X455500D02*
D03*
X460500D02*
D03*
X465500D02*
D03*
X470500D02*
D03*
X475500D02*
D03*
X480500D02*
D03*
Y243500D02*
D03*
X475500D02*
D03*
X470500D02*
D03*
X465500D02*
D03*
X460500D02*
D03*
X455500D02*
D03*
X450500D02*
D03*
X445500D02*
D03*
D40*
X463000Y220000D02*
D03*
D41*
X701300Y251000D02*
D03*
X664300D02*
D03*
X701300Y189000D02*
D03*
X664300D02*
D03*
X316500Y189000D02*
D03*
X353500D02*
D03*
X316500Y251000D02*
D03*
X353500D02*
D03*
D42*
X259000Y102000D02*
D03*
X291000D02*
D03*
X235600Y102000D02*
D03*
X203600D02*
D03*
D43*
X32250Y105900D02*
D03*
Y131300D02*
D03*
Y156700D02*
D03*
Y182100D02*
D03*
Y207500D02*
D03*
Y232900D02*
D03*
Y258300D02*
D03*
Y283700D02*
D03*
Y309100D02*
D03*
Y334500D02*
D03*
D44*
X184250Y227500D02*
D03*
Y210500D02*
D03*
X198250D02*
D03*
Y227500D02*
D03*
D45*
X232000Y125000D02*
D03*
X262000D02*
D03*
D46*
X247000Y124000D02*
D03*
D47*
X268500Y230000D02*
D03*
X278000D02*
D03*
X268350Y250000D02*
D03*
X277850D02*
D03*
X278000Y210000D02*
D03*
X268500D02*
D03*
X278000Y190000D02*
D03*
X268500D02*
D03*
D48*
X442000Y109000D02*
Y178700D01*
Y109000D02*
X450300Y100700D01*
Y70000D02*
Y100700D01*
X252730Y205909D02*
Y222269D01*
X248000Y227000D02*
X252730Y222269D01*
X244000Y227000D02*
X248000D01*
X252730Y205909D02*
X265639Y193000D01*
X524000Y233500D02*
Y277359D01*
X518500Y239004D02*
Y275081D01*
X513000Y242500D02*
Y272803D01*
X450300Y335503D02*
X513000Y272803D01*
X475700Y317881D02*
X518500Y275081D01*
X501100Y300259D02*
X524000Y277359D01*
X399500Y352500D02*
X455500Y296500D01*
X399500Y352500D02*
Y370000D01*
X424900Y336100D02*
X460621Y300379D01*
X424900Y336100D02*
Y370000D01*
X374100D02*
X450500Y293600D01*
X501100Y300259D02*
Y370000D01*
X475700Y317881D02*
Y370000D01*
X622200Y122000D02*
Y132082D01*
X379000Y239000D02*
Y296000D01*
X305000Y370000D02*
X379000Y296000D01*
Y237600D02*
Y239000D01*
Y237600D02*
X379100Y237500D01*
X266500Y193000D02*
X268500Y191000D01*
X265639Y193000D02*
X266500D01*
X279600Y370000D02*
X370000Y279600D01*
Y238500D02*
Y279600D01*
X292887Y209887D02*
X293000Y209774D01*
X278000Y210000D02*
X278113Y209887D01*
X268500Y190000D02*
Y191000D01*
X198250Y210500D02*
X199750Y209000D01*
X378000Y116900D02*
Y206157D01*
Y116900D02*
X424900Y70000D01*
X372000Y97500D02*
Y207500D01*
Y97500D02*
X399500Y70000D01*
X698400Y70000D02*
Y86400D01*
X567300Y217500D02*
X698400Y86400D01*
X673000Y70000D02*
Y101900D01*
X562400Y212500D02*
X673000Y101900D01*
X557000Y207500D02*
X647600Y116900D01*
Y70000D02*
Y116900D01*
X622200Y109000D02*
Y122000D01*
X551782Y202500D02*
X622200Y132082D01*
Y70000D02*
Y109000D01*
X621000Y71200D02*
X622200Y70000D01*
X366000Y80992D02*
Y209400D01*
Y80992D02*
X374100Y72892D01*
Y70000D02*
Y72892D01*
X475500Y146400D02*
X551900Y70000D01*
X450300Y335503D02*
Y370000D01*
X470500Y126000D02*
X526500Y70000D01*
X465500Y105600D02*
X501100Y70000D01*
X460500Y85200D02*
X475700Y70000D01*
D49*
X450300Y157000D02*
X450400Y156900D01*
Y148600D02*
Y156900D01*
Y148600D02*
X450500Y148500D01*
X110000Y200875D02*
X110063Y200812D01*
X74750Y182050D02*
X74800Y182100D01*
X232000Y266500D02*
Y284000D01*
Y266500D02*
X268500Y230000D01*
X182000Y262382D02*
X203618Y284000D01*
X182000Y247000D02*
Y262382D01*
X203618Y284000D02*
X232000D01*
X110063Y168062D02*
Y200812D01*
X110000Y168000D02*
X110063Y168062D01*
X809350Y70350D02*
X809700Y70000D01*
X809350Y70350D02*
Y98357D01*
X809000Y98707D02*
X809350Y98357D01*
X794000Y99000D02*
X808707D01*
X809000Y98707D01*
X216500Y231000D02*
X220750D01*
X206500Y241000D02*
X216500Y231000D01*
X187750Y241000D02*
X206500D01*
X32300Y182050D02*
X74750D01*
X32250Y182100D02*
X32300Y182050D01*
X74800Y182100D02*
X74850Y182050D01*
X262287Y217213D02*
X268500Y211000D01*
X259779Y217213D02*
X262287D01*
X268500Y210000D02*
Y211000D01*
X531000Y226000D02*
Y278844D01*
X526500Y283344D02*
X531000Y278844D01*
X526500Y283344D02*
Y370000D01*
X277850Y251000D02*
X315596Y288746D01*
Y295904D01*
X325000Y278001D02*
Y303000D01*
X278000Y231000D02*
X325000Y278001D01*
X278000Y230000D02*
Y231000D01*
X277850Y250000D02*
Y251000D01*
X325000Y242500D02*
X345000D01*
X318000Y249500D02*
X325000Y242500D01*
X317000Y249500D02*
X318000D01*
X316500Y250000D02*
X317000Y249500D01*
X316500Y250000D02*
Y251000D01*
X345000Y218500D02*
Y219000D01*
X316500Y190000D02*
X345000Y218500D01*
X316500Y189000D02*
Y190000D01*
X242000Y293844D02*
Y313000D01*
Y293844D02*
X246558Y289286D01*
X246714D01*
X252000Y284000D01*
X764000Y207000D02*
X778000D01*
X764000Y233000D02*
X778000D01*
X549000Y142000D02*
Y192000D01*
X531000Y142000D02*
Y192000D01*
X539999Y141999D02*
Y191999D01*
X540000Y192000D01*
X654300Y233000D02*
X664300Y243000D01*
Y251000D01*
X640000Y233000D02*
X654300D01*
X664300Y189000D02*
Y196500D01*
X653800Y207000D02*
X664300Y196500D01*
X640000Y207000D02*
X653800D01*
X742000Y151000D02*
X794000Y99000D01*
X692000Y151000D02*
X742000D01*
X340250Y227500D02*
X366000D01*
X302750Y190000D02*
X340250Y227500D01*
X278000Y190000D02*
X302750D01*
X278113Y209887D02*
X292887D01*
X252000Y267350D02*
Y284000D01*
Y267350D02*
X268350Y251000D01*
Y250000D02*
Y251000D01*
X220750Y231000D02*
X232000D01*
X224750Y213000D02*
X244000D01*
X220750Y209000D02*
X224750Y213000D01*
X199750Y209000D02*
X220750D01*
X184250Y237500D02*
X187750Y241000D01*
X184250Y227500D02*
Y237500D01*
D50*
X67000Y89000D02*
X77000Y99000D01*
X13079Y89000D02*
X67000D01*
X7250Y94829D02*
X13079Y89000D01*
X394000Y243500D02*
Y298000D01*
X236000Y245000D02*
X236000Y245000D01*
X220750Y245000D02*
X236000D01*
X7250Y94829D02*
Y320500D01*
X21250Y334500D01*
X32250D01*
X32451Y258100D02*
X75000D01*
X32250Y258300D02*
X32451Y258100D01*
D51*
X91000Y205142D02*
X118558Y232700D01*
X91000Y161000D02*
Y205142D01*
X118558Y232700D02*
X133000D01*
X62000Y132000D02*
X91000Y161000D01*
X32950Y132000D02*
X62000D01*
X32250Y131300D02*
X32950Y132000D01*
D52*
X640000Y220000D02*
Y233000D01*
Y207000D02*
Y220000D01*
X750000Y233000D02*
Y242500D01*
X745500Y247000D02*
X750000Y242500D01*
X728000Y247000D02*
X745500D01*
X748750Y205750D02*
X750000D01*
Y196515D02*
Y205750D01*
X746485Y193000D02*
X750000Y196515D01*
X748750Y205750D02*
X750000Y207000D01*
X728000Y193000D02*
X746485D01*
D53*
X827300Y245400D02*
D03*
X133000Y258100D02*
D03*
D54*
X827300Y194600D02*
D03*
Y220000D02*
D03*
X852700D02*
D03*
Y194600D02*
D03*
Y245400D02*
D03*
X222600Y70000D02*
D03*
X248000D02*
D03*
X133000Y207300D02*
D03*
Y232700D02*
D03*
Y181900D02*
D03*
D55*
X273400Y70000D02*
D03*
D56*
X348700D02*
D03*
X785800Y370000D02*
D03*
X682800D02*
D03*
X577300Y370000D02*
D03*
X305000Y370000D02*
D03*
X622200Y70000D02*
D03*
X758900Y70000D02*
D03*
X142300D02*
D03*
D57*
X374100Y70000D02*
D03*
X399500D02*
D03*
X424900D02*
D03*
X450300D02*
D03*
X475700D02*
D03*
X501100D02*
D03*
X526500D02*
D03*
X551900D02*
D03*
X577300D02*
D03*
X735000Y370000D02*
D03*
X760400D02*
D03*
X632000D02*
D03*
X657400D02*
D03*
X551900Y370000D02*
D03*
X526500D02*
D03*
X501100D02*
D03*
X475700D02*
D03*
X450300D02*
D03*
X424900D02*
D03*
X399500D02*
D03*
X374100D02*
D03*
X348700D02*
D03*
X254200Y370000D02*
D03*
X279600D02*
D03*
X723800Y70000D02*
D03*
X647600D02*
D03*
X673000D02*
D03*
X698400D02*
D03*
X784300Y70000D02*
D03*
X809700D02*
D03*
X835100D02*
D03*
X167700D02*
D03*
D58*
X453999Y168000D02*
D03*
X450300Y157000D02*
D03*
X463000Y220000D02*
D03*
Y207500D02*
D03*
X450500D02*
D03*
Y220000D02*
D03*
Y232500D02*
D03*
X463000D02*
D03*
X475500Y232500D02*
D03*
Y220000D02*
D03*
Y207500D02*
D03*
X100000Y419999D02*
D03*
X107500Y404999D02*
D03*
X100000Y389999D02*
D03*
X107500Y374999D02*
D03*
X100000Y359999D02*
D03*
X107500Y344999D02*
D03*
X100000Y329999D02*
D03*
X107500Y314999D02*
D03*
X85000Y419999D02*
D03*
X92500Y404999D02*
D03*
X85000Y389999D02*
D03*
X92500Y374999D02*
D03*
X85000Y359999D02*
D03*
X92500Y344999D02*
D03*
X85000Y329999D02*
D03*
X92500Y314999D02*
D03*
X85000Y300000D02*
D03*
X70000Y419999D02*
D03*
X77500Y404999D02*
D03*
X70000Y389999D02*
D03*
X77500Y374999D02*
D03*
X70000Y359999D02*
D03*
X77500Y344999D02*
D03*
X70000Y329999D02*
D03*
X77500Y314999D02*
D03*
X70000Y300000D02*
D03*
X55000Y359999D02*
D03*
X40000D02*
D03*
X25000D02*
D03*
X10000D02*
D03*
X184250Y380000D02*
D03*
X199750D02*
D03*
X217001D02*
D03*
X232000D02*
D03*
Y362321D02*
D03*
X217001D02*
D03*
X199750D02*
D03*
X184250D02*
D03*
Y348000D02*
D03*
X199750D02*
D03*
X216850D02*
D03*
X232000D02*
D03*
X290854Y322950D02*
D03*
X302149D02*
D03*
Y308608D02*
D03*
X290854D02*
D03*
X418900Y308379D02*
D03*
Y298000D02*
D03*
X409000Y298541D02*
D03*
Y308379D02*
D03*
X399000D02*
D03*
X409000Y323000D02*
D03*
X403000Y316000D02*
D03*
X400000Y323892D02*
D03*
X392859Y317130D02*
D03*
X387000Y309967D02*
D03*
X579999Y44999D02*
D03*
X565000D02*
D03*
X550000D02*
D03*
X535000D02*
D03*
X520000D02*
D03*
X505000D02*
D03*
X490000D02*
D03*
X475000D02*
D03*
X460000D02*
D03*
X445000D02*
D03*
X430000D02*
D03*
X415000D02*
D03*
X400000D02*
D03*
X385000D02*
D03*
X370000D02*
D03*
X355000D02*
D03*
X902499Y359999D02*
D03*
X894999Y344999D02*
D03*
X902499Y329999D02*
D03*
X894999Y314999D02*
D03*
X902499Y300000D02*
D03*
X894999Y285000D02*
D03*
X902499Y270000D02*
D03*
X894999Y255000D02*
D03*
X902499Y240000D02*
D03*
X894999Y225000D02*
D03*
X902499Y210000D02*
D03*
X894999Y195000D02*
D03*
X902499Y180000D02*
D03*
X894999Y165000D02*
D03*
X902499Y150000D02*
D03*
X894999Y135000D02*
D03*
X902499Y120000D02*
D03*
X894999Y105000D02*
D03*
X902499Y90000D02*
D03*
X894999Y74999D02*
D03*
X887499Y359999D02*
D03*
X879999Y344999D02*
D03*
X887499Y329999D02*
D03*
X879999Y314999D02*
D03*
X887499Y300000D02*
D03*
X879999Y285000D02*
D03*
X887499Y270000D02*
D03*
X879999Y255000D02*
D03*
X887499Y240000D02*
D03*
X879999Y225000D02*
D03*
X887499Y210000D02*
D03*
X879999Y195000D02*
D03*
X887499Y180000D02*
D03*
X879999Y165000D02*
D03*
X887499Y150000D02*
D03*
X879999Y135000D02*
D03*
X887499Y120000D02*
D03*
X879999Y105000D02*
D03*
X887499Y90000D02*
D03*
X879999Y74999D02*
D03*
X872499Y359999D02*
D03*
X864999Y344999D02*
D03*
X872499Y329999D02*
D03*
X864999Y314999D02*
D03*
X872499Y300000D02*
D03*
X864999Y285000D02*
D03*
X872499Y270000D02*
D03*
Y240000D02*
D03*
Y210000D02*
D03*
Y180000D02*
D03*
X864999Y165000D02*
D03*
X872499Y150000D02*
D03*
Y120000D02*
D03*
Y90000D02*
D03*
X849999Y404999D02*
D03*
Y374999D02*
D03*
X857499Y359999D02*
D03*
X849999Y344999D02*
D03*
X857499Y329999D02*
D03*
X849999Y314999D02*
D03*
X857499Y300000D02*
D03*
X849999Y285000D02*
D03*
X857499Y270000D02*
D03*
X579999Y120000D02*
D03*
Y90000D02*
D03*
X565000Y120000D02*
D03*
X572499Y105000D02*
D03*
X565000Y90000D02*
D03*
X550000Y120000D02*
D03*
X557499Y105000D02*
D03*
X834999Y44999D02*
D03*
X819999D02*
D03*
X804999D02*
D03*
X789999D02*
D03*
X774999D02*
D03*
X759999D02*
D03*
X744999D02*
D03*
X729999D02*
D03*
X714999D02*
D03*
X699999D02*
D03*
X684999D02*
D03*
X669999D02*
D03*
X654999D02*
D03*
X639999D02*
D03*
X624999D02*
D03*
X318000Y232500D02*
D03*
X318000Y220000D02*
D03*
X295988Y199000D02*
D03*
X358000Y237912D02*
D03*
X343001Y171001D02*
D03*
X347501Y162001D02*
D03*
X343001Y153001D02*
D03*
X334001Y171001D02*
D03*
X338501Y162001D02*
D03*
X334001Y153001D02*
D03*
X325001Y171001D02*
D03*
X329501Y162001D02*
D03*
X325001Y153001D02*
D03*
X320501Y162001D02*
D03*
X307001Y171001D02*
D03*
X311501Y162001D02*
D03*
X307001Y153001D02*
D03*
X298001Y171001D02*
D03*
X302501Y162001D02*
D03*
X289001Y171001D02*
D03*
X293501Y162001D02*
D03*
X280001Y171001D02*
D03*
X284501Y162001D02*
D03*
X271001Y171001D02*
D03*
X275501Y162001D02*
D03*
X262001Y171001D02*
D03*
X266501Y162001D02*
D03*
X226001Y171001D02*
D03*
X217001D02*
D03*
X221501Y162001D02*
D03*
X208001Y171001D02*
D03*
X212501Y162001D02*
D03*
X203501D02*
D03*
X181001Y189001D02*
D03*
X185501Y180001D02*
D03*
X181001Y171001D02*
D03*
X77000Y127000D02*
D03*
Y118000D02*
D03*
X67000D02*
D03*
X394000Y298000D02*
D03*
X236000Y245000D02*
D03*
X326000Y13000D02*
D03*
X315596D02*
D03*
X305000D02*
D03*
X326000Y23000D02*
D03*
X315596D02*
D03*
X305000D02*
D03*
X414000Y127000D02*
D03*
X404201D02*
D03*
X394000D02*
D03*
X394000Y136000D02*
D03*
X404201Y135888D02*
D03*
X414000D02*
D03*
Y146000D02*
D03*
X404201D02*
D03*
X394001D02*
D03*
X110125Y201000D02*
D03*
X74850Y182050D02*
D03*
X110000Y168000D02*
D03*
X182000Y247000D02*
D03*
X77000Y99000D02*
D03*
X259779Y217213D02*
D03*
X394000Y190000D02*
D03*
X147000Y127000D02*
D03*
X142000Y120000D02*
D03*
X137000Y127000D02*
D03*
X310000D02*
D03*
Y116500D02*
D03*
Y105750D02*
D03*
X531000Y226000D02*
D03*
X513000Y193000D02*
D03*
X315596Y295904D02*
D03*
X325000Y303000D02*
D03*
X345000Y242500D02*
D03*
Y219000D02*
D03*
X450500Y124000D02*
D03*
X242000Y313000D02*
D03*
X75000Y258100D02*
D03*
X408000Y255000D02*
D03*
Y264000D02*
D03*
X778000Y207000D02*
D03*
X640000Y220000D02*
D03*
X778000Y233000D02*
D03*
X549000Y142000D02*
D03*
Y192000D02*
D03*
X531000Y142000D02*
D03*
X539999Y141999D02*
D03*
X531000Y192000D02*
D03*
X540000D02*
D03*
X492999Y272000D02*
D03*
Y281000D02*
D03*
X500999Y259999D02*
D03*
X501099Y250564D02*
D03*
X692000Y151000D02*
D03*
X497000Y240000D02*
D03*
X379000Y239000D02*
D03*
X293000Y209774D02*
D03*
X232000Y231000D02*
D03*
M02*
