G04*
G04 #@! TF.GenerationSoftware,Altium Limited,Altium Designer,19.1.8 (144)*
G04*
G04 Layer_Color=8388736*
%FSLAX44Y44*%
%MOMM*%
G71*
G01*
G75*
%ADD16C,2.0000*%
%ADD17R,1.0000X1.0000*%
%ADD18R,1.0000X1.0000*%
%ADD19R,0.7500X0.4500*%
%ADD20R,0.4500X0.7500*%
%ADD21R,3.6000X3.6000*%
%ADD22R,0.7500X0.9500*%
%ADD23R,1.3500X1.7500*%
%ADD24R,4.1500X1.9500*%
%ADD25R,1.2500X1.3500*%
%ADD26R,0.7500X1.5500*%
%ADD27R,0.8000X1.3500*%
%ADD28R,0.9500X1.1500*%
%ADD29R,2.1500X2.1500*%
%ADD30C,2.1500*%
%ADD31R,2.1500X2.1500*%
%ADD32P,2.1107X8X22.5*%
%ADD33C,1.9500*%
%ADD34C,0.1500*%
%ADD35C,0.8500*%
G36*
X60000Y380000D02*
X0D01*
X-0Y380000D01*
Y410000D01*
X30000D01*
Y440000D01*
X60000Y440000D01*
Y380000D01*
D02*
G37*
G36*
X891000Y410000D02*
X921000D01*
X921000Y380000D01*
X861000D01*
Y440000D01*
X861000Y440000D01*
X891000D01*
Y410000D01*
D02*
G37*
G36*
X282850Y244000D02*
X263350D01*
Y256000D01*
X282850D01*
Y244000D01*
D02*
G37*
G36*
X283000Y224000D02*
X263500D01*
Y236000D01*
X283000D01*
Y224000D01*
D02*
G37*
G36*
X283000Y204000D02*
X263500D01*
Y216000D01*
X283000D01*
Y204000D01*
D02*
G37*
G36*
Y184000D02*
X263500D01*
Y196000D01*
X283000D01*
Y184000D01*
D02*
G37*
G36*
X250030Y168750D02*
X250060Y168750D01*
X250089Y168745D01*
X250118Y168743D01*
X250147Y168736D01*
X250177Y168731D01*
X250205Y168722D01*
X250233Y168716D01*
X250260Y168704D01*
X250289Y168695D01*
X250315Y168682D01*
X250342Y168670D01*
X250368Y168654D01*
X250394Y168641D01*
X250417Y168624D01*
X250442Y168609D01*
X250465Y168589D01*
X250490Y168571D01*
X257490Y162571D01*
X257510Y162551D01*
X257532Y162532D01*
X257552Y162509D01*
X257573Y162488D01*
X257590Y162464D01*
X257609Y162442D01*
X257624Y162416D01*
X257642Y162392D01*
X257655Y162366D01*
X257670Y162342D01*
X257682Y162314D01*
X257696Y162287D01*
X257705Y162259D01*
X257715Y162233D01*
X257722Y162203D01*
X257732Y162174D01*
X257736Y162146D01*
X257743Y162118D01*
X257745Y162088D01*
X257750Y162058D01*
X257750Y162029D01*
X257752Y162000D01*
Y137000D01*
X257743Y136882D01*
X257715Y136768D01*
X257684Y136691D01*
X257670Y136659D01*
X257609Y136558D01*
X257532Y136468D01*
X250532Y129468D01*
X250442Y129391D01*
X250342Y129330D01*
X250233Y129285D01*
X250118Y129257D01*
X250000Y129248D01*
X244000D01*
X243882Y129257D01*
X243768Y129285D01*
X243690Y129317D01*
X243658Y129330D01*
X243558Y129391D01*
X243468Y129468D01*
X236468Y136468D01*
X236391Y136558D01*
X236330Y136659D01*
X236307Y136713D01*
X236285Y136768D01*
X236257Y136882D01*
X236248Y137000D01*
Y162000D01*
X236250Y162029D01*
X236250Y162058D01*
X236255Y162088D01*
X236257Y162118D01*
X236264Y162146D01*
X236268Y162174D01*
X236278Y162203D01*
X236285Y162233D01*
X236296Y162259D01*
X236304Y162287D01*
X236318Y162314D01*
X236330Y162342D01*
X236345Y162366D01*
X236358Y162392D01*
X236376Y162416D01*
X236391Y162442D01*
X236410Y162464D01*
X236427Y162488D01*
X236448Y162509D01*
X236468Y162532D01*
X236490Y162551D01*
X236510Y162571D01*
X243510Y168571D01*
X243535Y168589D01*
X243558Y168609D01*
X243583Y168624D01*
X243606Y168641D01*
X243633Y168654D01*
X243659Y168670D01*
X243685Y168682D01*
X243711Y168695D01*
X243740Y168704D01*
X243768Y168716D01*
X243795Y168722D01*
X243823Y168731D01*
X243853Y168736D01*
X243882Y168743D01*
X243911Y168745D01*
X243940Y168750D01*
X243970Y168750D01*
X244000Y168752D01*
X250000D01*
X250030Y168750D01*
D02*
G37*
G36*
X921000Y60000D02*
Y30000D01*
X891000D01*
Y0D01*
X861000Y-0D01*
Y60000D01*
X921000D01*
X921000Y60000D01*
D02*
G37*
G36*
X60000Y0D02*
X60000Y-0D01*
X30000D01*
Y30000D01*
X0D01*
X-0Y60000D01*
X60000D01*
Y0D01*
D02*
G37*
D16*
X911000Y410000D02*
G03*
X911000Y410000I-20000J0D01*
G01*
Y30000D02*
G03*
X911000Y30000I-20000J0D01*
G01*
X50000Y30000D02*
G03*
X50000Y30000I-20000J0D01*
G01*
X50000Y410000D02*
G03*
X50000Y410000I-20000J0D01*
G01*
D17*
X287000Y128000D02*
D03*
Y142000D02*
D03*
X574800Y314000D02*
D03*
Y328000D02*
D03*
X551900Y314000D02*
D03*
Y328000D02*
D03*
X210000Y127000D02*
D03*
Y141000D02*
D03*
X728000Y193000D02*
D03*
Y207000D02*
D03*
X640000Y207000D02*
D03*
Y193000D02*
D03*
X450500Y148500D02*
D03*
Y134500D02*
D03*
X232000Y298000D02*
D03*
Y284000D02*
D03*
X220750Y245000D02*
D03*
Y231000D02*
D03*
X220750Y209000D02*
D03*
Y195000D02*
D03*
X640000Y233000D02*
D03*
Y247000D02*
D03*
X728000D02*
D03*
Y233000D02*
D03*
X252000Y298001D02*
D03*
Y284000D02*
D03*
X244000Y213000D02*
D03*
Y227000D02*
D03*
X348700Y104000D02*
D03*
Y118000D02*
D03*
X330000Y104000D02*
D03*
Y118000D02*
D03*
D18*
X622000Y126000D02*
D03*
X608000D02*
D03*
X809000Y98707D02*
D03*
X823000D02*
D03*
X764000Y233000D02*
D03*
X750000D02*
D03*
X764000Y207000D02*
D03*
X750000D02*
D03*
X408001Y163001D02*
D03*
X394001D02*
D03*
X408000Y199000D02*
D03*
X394000D02*
D03*
X408000Y181000D02*
D03*
X394000D02*
D03*
X408000Y243500D02*
D03*
X394000D02*
D03*
D19*
X439500Y237500D02*
D03*
Y232500D02*
D03*
Y227500D02*
D03*
Y222500D02*
D03*
Y217500D02*
D03*
Y212500D02*
D03*
Y207500D02*
D03*
Y202500D02*
D03*
X486500D02*
D03*
Y207500D02*
D03*
Y212500D02*
D03*
Y217500D02*
D03*
Y222500D02*
D03*
Y227500D02*
D03*
Y232500D02*
D03*
Y237500D02*
D03*
D20*
X445500Y196500D02*
D03*
X450500D02*
D03*
X455500D02*
D03*
X460500D02*
D03*
X465500D02*
D03*
X470500D02*
D03*
X475500D02*
D03*
X480500D02*
D03*
Y243500D02*
D03*
X475500D02*
D03*
X470500D02*
D03*
X465500D02*
D03*
X460500D02*
D03*
X455500D02*
D03*
X450500D02*
D03*
X445500D02*
D03*
D21*
X463000Y220000D02*
D03*
D22*
X701300Y251000D02*
D03*
X664300D02*
D03*
X701300Y189000D02*
D03*
X664300D02*
D03*
X316500Y189000D02*
D03*
X353500D02*
D03*
X316500Y251000D02*
D03*
X353500D02*
D03*
D23*
X259000Y102000D02*
D03*
X291000D02*
D03*
X235600Y102000D02*
D03*
X203600D02*
D03*
D24*
X32250Y105900D02*
D03*
Y131300D02*
D03*
Y156700D02*
D03*
Y182100D02*
D03*
Y207500D02*
D03*
Y232900D02*
D03*
Y258300D02*
D03*
Y283700D02*
D03*
Y309100D02*
D03*
Y334500D02*
D03*
D25*
X184250Y227500D02*
D03*
Y210500D02*
D03*
X198250D02*
D03*
Y227500D02*
D03*
D26*
X232000Y125000D02*
D03*
X262000D02*
D03*
D27*
X247000Y124000D02*
D03*
D28*
X268500Y230000D02*
D03*
X278000D02*
D03*
X268350Y250000D02*
D03*
X277850D02*
D03*
X278000Y210000D02*
D03*
X268500D02*
D03*
X278000Y190000D02*
D03*
X268500D02*
D03*
D29*
X827300Y245400D02*
D03*
X133000Y258100D02*
D03*
D30*
X827300Y194600D02*
D03*
Y220000D02*
D03*
X852700D02*
D03*
Y194600D02*
D03*
Y245400D02*
D03*
X222600Y70000D02*
D03*
X248000D02*
D03*
X133000Y207300D02*
D03*
Y232700D02*
D03*
Y181900D02*
D03*
D31*
X273400Y70000D02*
D03*
D32*
X348700D02*
D03*
X785800Y370000D02*
D03*
X682800D02*
D03*
X577300Y370000D02*
D03*
X305000Y370000D02*
D03*
X622200Y70000D02*
D03*
X758900Y70000D02*
D03*
X142300D02*
D03*
D33*
X374100Y70000D02*
D03*
X399500D02*
D03*
X424900D02*
D03*
X450300D02*
D03*
X475700D02*
D03*
X501100D02*
D03*
X526500D02*
D03*
X551900D02*
D03*
X577300D02*
D03*
X735000Y370000D02*
D03*
X760400D02*
D03*
X632000D02*
D03*
X657400D02*
D03*
X551900Y370000D02*
D03*
X526500D02*
D03*
X501100D02*
D03*
X475700D02*
D03*
X450300D02*
D03*
X424900D02*
D03*
X399500D02*
D03*
X374100D02*
D03*
X348700D02*
D03*
X254200Y370000D02*
D03*
X279600D02*
D03*
X723800Y70000D02*
D03*
X647600D02*
D03*
X673000D02*
D03*
X698400D02*
D03*
X784300Y70000D02*
D03*
X809700D02*
D03*
X835100D02*
D03*
X167700D02*
D03*
D34*
X891000Y410000D02*
D03*
X891000Y30000D02*
D03*
X30000Y30000D02*
D03*
Y410000D02*
D03*
D35*
X463000Y220000D02*
D03*
Y207500D02*
D03*
X450500D02*
D03*
Y220000D02*
D03*
Y232500D02*
D03*
X463000D02*
D03*
X475500Y232500D02*
D03*
Y220000D02*
D03*
Y207500D02*
D03*
M02*
