M48
;Layer_Color=9474304
;FILE_FORMAT=4:4
METRIC,LZ
;TYPE=PLATED
T1F00S00C0.3000
T2F00S00C1.1000
;TYPE=NON_PLATED
T3F00S00C2.0000
%
T01
X00744999Y00044999
X00759999
X00774999
X00789999
X00804999
X00819999
X00834999
X00729999
X00714999
X00699999
X00684999
X00669999
X00654999
X00639999
X00624999
X00579999
X00565
X0055
X00535
X0052
X00505
X0049
X00475
X0046
X00445
X0043
X00415
X004
X00385
X0037
X00355
X00326Y00023
Y00013
X00315596
Y00023
X00305
Y00013
X0031Y0010575
Y001165
Y00127
X00307001Y00153001
X00311501Y00162001
X00320501
X00329501
X00325001Y00171001
X00334001
Y00153001
X00325001
X00302501Y00162001
X00293501
X00284501
X00275501
X00266501
X00262001Y00171001
X00271001
X00280001
X00289001
X00298001
X00307001
X00295988Y00199
X00293Y00209774
X00318Y0022
X00318Y002325
X00315596Y00295904
X00325Y00303
X00302149Y00308608
X00290854
Y0032295
X00302149
X00242Y00313
X00232Y00348
Y00362321
X00217001
X0021685Y00348
X0019975
Y00362321
X0018425
Y00348
Y0038
X0019975
X00217001
X00232
X001075Y00374999
X000925
X000775
X0007Y00389999
X00085
X001
X001075Y00404999
X000925
X000775
X0007Y00419999
X00085
X001
Y00359999
X00085
X0007
X00055
X0004
X00025
X0001
X000775Y00344999
X000925
X001075
X001Y00329999
X00085
X0007
X000775Y00314999
X000925
X001075
X00085Y003
X0007
X00075Y002581
X0007485Y0018205
X0011Y00168
X00110125Y00201
X00181001Y00189001
X00185501Y00180001
X00181001Y00171001
X00208001
X00217001
X00226001
X00221501Y00162001
X00212501
X00203501
X00147Y00127
X00137
X00142Y0012
X00077Y00118
Y00127
X00067Y00118
X00077Y00099
X00182Y00247
X00236Y00245
X00232Y00231
X00259779Y00217213
X00345Y00219
Y002425
X00358Y00237912
X00379Y00239
X00408Y00255
Y00264
X00409Y00298541
Y00308379
X004189
Y00298
X00394
X00399Y00308379
X00403Y00316
X004Y00323892
X00409Y00323
X00392859Y0031713
X00387Y00309967
X00394Y0019
X00394001Y00146
X00394Y00136
X00394Y00127
X00404201
Y00135888
X00414
Y00127
Y00146
X00404201
X004503Y00157
X00453999Y00168
X004505Y002075
X00463
Y0022
X004505
Y002325
X00463
X004755Y002325
Y0022
Y002075
X00513Y00193
X00531Y00192
X0054
X00549
Y00142
X00539999Y00141999
X00531Y00142
X0055Y0012
X00565
X00579999
X00572499Y00105
X00557499
X00565Y0009
X00579999
X004505Y00124
X00343001Y00153001
X00347501Y00162001
X00338501
X00343001Y00171001
X00497Y0024
X00501099Y00250564
X00500999Y00259999
X00492999Y00272
Y00281
X00531Y00226
X0064Y0022
X00692Y00151
X00778Y00207
Y00233
X00872499Y0024
X00887499
X00902499
X00894999Y00255
X00879999
X00887499Y0027
X00902499
X00894999Y00285
X00879999
X00864999
X00849999
X00857499Y003
X00872499
X00887499
X00902499
X00894999Y00314999
X00879999
X00864999
X00849999
X00857499Y00329999
X00872499
X00887499
X00902499
X00894999Y00344999
X00879999
X00864999
X00849999
X00857499Y00359999
X00872499
X00887499
X00902499
X00849999Y00374999
Y00404999
X00857499Y0027
X00872499
X00879999Y00225
X00894999
X00902499Y0021
X00887499
X00872499
X00879999Y00195
X00894999
X00902499Y0018
X00887499
X00872499
X00864999Y00165
X00879999
X00894999
X00902499Y0015
X00887499
X00872499
X00879999Y00135
X00894999
X00902499Y0012
X00887499
X00872499
X00879999Y00105
X00894999
X00902499Y0009
X00887499
X00872499
X00879999Y00074999
X00894999
T02
X001423Y0007
X001677
X002226Y0007
X00248
X002734
X00133Y001819
Y002073
Y002327
Y002581
X002542Y0037
X002796
X00305
X003487Y0037
X003741
X003995
X004249
X004503
X004757
X005011
X005265
X005519
X005773
X00632Y0037
X006574
X006828
X00673Y0007
X006476
X006222
X005773Y0007
X005519
X005265
X005011
X004757
X004503
X004249
X003995
X003741
X003487
X006984Y0007
X007238
X007589Y0007
X007843
X008097
X008351
X008273Y001946
Y0022
Y002454
X008527
Y0022
Y001946
X007858Y0037
X007604
X00735
T03
X00891Y0003
X0003Y0003
Y0041
X00891Y0041
M30
