G04*
G04 #@! TF.GenerationSoftware,Altium Limited,Altium Designer,19.1.8 (144)*
G04*
G04 Layer_Physical_Order=2*
G04 Layer_Color=16711680*
%FSLAX44Y44*%
%MOMM*%
G71*
G01*
G75*
%ADD43R,4.0000X1.8000*%
%ADD49C,0.5000*%
%ADD50C,0.7000*%
%ADD51C,1.0000*%
%ADD53R,2.0000X2.0000*%
%ADD54C,2.0000*%
%ADD55R,2.0000X2.0000*%
%ADD56P,1.9483X8X22.5*%
%ADD57C,1.8000*%
%ADD58C,0.7000*%
G36*
X856000Y375000D02*
X916000D01*
Y65000D01*
X855000D01*
Y5000D01*
X337039D01*
X337039Y62615D01*
X338309Y63141D01*
X342950Y58500D01*
X354450D01*
X360200Y64250D01*
Y75750D01*
X354450Y81500D01*
X343180D01*
X342444Y82560D01*
X378433Y118549D01*
X414501D01*
X414987Y117376D01*
X378313Y80702D01*
X377102Y81204D01*
X374100Y81599D01*
X371098Y81204D01*
X368300Y80045D01*
X365898Y78202D01*
X364055Y75799D01*
X362896Y73002D01*
X362501Y70000D01*
X362896Y66998D01*
X364055Y64200D01*
X365898Y61798D01*
X368300Y59955D01*
X371098Y58796D01*
X374100Y58401D01*
X377102Y58796D01*
X379900Y59955D01*
X382302Y61798D01*
X384145Y64200D01*
X385304Y66998D01*
X385699Y70000D01*
X385304Y73002D01*
X384802Y74213D01*
X422001Y111412D01*
X432764D01*
X433250Y110239D01*
X403713Y80702D01*
X402502Y81204D01*
X399500Y81599D01*
X396498Y81204D01*
X393700Y80045D01*
X391298Y78202D01*
X389455Y75799D01*
X388296Y73002D01*
X387901Y70000D01*
X388296Y66998D01*
X389455Y64200D01*
X391298Y61798D01*
X393700Y59955D01*
X396498Y58796D01*
X399500Y58401D01*
X402502Y58796D01*
X405300Y59955D01*
X407702Y61798D01*
X409545Y64200D01*
X410704Y66998D01*
X411099Y70000D01*
X410704Y73002D01*
X410202Y74213D01*
X440901Y104912D01*
X451664D01*
X452150Y103738D01*
X429114Y80702D01*
X427902Y81204D01*
X424900Y81599D01*
X421898Y81204D01*
X419100Y80045D01*
X416698Y78202D01*
X414855Y75799D01*
X413696Y73002D01*
X413301Y70000D01*
X413696Y66998D01*
X414855Y64200D01*
X416698Y61798D01*
X419100Y59955D01*
X421898Y58796D01*
X424900Y58401D01*
X427902Y58796D01*
X430700Y59955D01*
X433102Y61798D01*
X434945Y64200D01*
X436104Y66998D01*
X436499Y70000D01*
X436104Y73002D01*
X435602Y74213D01*
X459801Y98412D01*
X513692D01*
X515448Y98761D01*
X516937Y99756D01*
X551862Y134681D01*
X552856Y136169D01*
X553205Y137925D01*
Y138394D01*
X554181Y139854D01*
X554608Y142000D01*
X554181Y144146D01*
X552965Y145965D01*
X551146Y147181D01*
X549000Y147608D01*
X546854Y147181D01*
X545035Y145965D01*
X544501Y146046D01*
X543648Y146176D01*
X542772Y146761D01*
X542145Y147180D01*
X539999Y147607D01*
X537853Y147180D01*
X536351Y146177D01*
X534965Y145965D01*
X533146Y147181D01*
X531000Y147608D01*
X528854Y147181D01*
X527035Y145965D01*
X525819Y144146D01*
X525392Y142000D01*
X525795Y139976D01*
X506407Y120588D01*
X424900D01*
Y152756D01*
X424745Y153536D01*
X424303Y154198D01*
X423641Y154640D01*
X422861Y154795D01*
X377756D01*
X376975Y154640D01*
X376314Y154198D01*
X376314Y154198D01*
X317558Y95442D01*
X297558Y75442D01*
X297116Y74780D01*
X296961Y74000D01*
X296961Y5000D01*
X296961Y5000D01*
X65000D01*
Y65000D01*
X5000D01*
Y92000D01*
X57000D01*
Y100142D01*
X67927D01*
X70072Y97998D01*
X70180Y97173D01*
X70886Y95470D01*
X72008Y94008D01*
X73470Y92886D01*
X75173Y92180D01*
X77000Y91940D01*
X241475D01*
X249835Y83579D01*
X249274Y82440D01*
X248000Y82608D01*
X244736Y82178D01*
X241696Y80919D01*
X239084Y78915D01*
X237081Y76304D01*
X235951Y73577D01*
X235950Y73577D01*
X234650D01*
X234648Y73577D01*
X233518Y76304D01*
X231515Y78915D01*
X228904Y80919D01*
X225863Y82178D01*
X222600Y82608D01*
X219336Y82178D01*
X216296Y80919D01*
X213685Y78915D01*
X211681Y76304D01*
X210421Y73263D01*
X209992Y70000D01*
X210421Y66737D01*
X211681Y63696D01*
X213685Y61085D01*
X216296Y59081D01*
X219336Y57822D01*
X222600Y57392D01*
X225863Y57822D01*
X228904Y59081D01*
X231515Y61085D01*
X233518Y63696D01*
X234648Y66423D01*
X234650Y66423D01*
X235950D01*
X235951Y66423D01*
X237081Y63696D01*
X239084Y61085D01*
X241696Y59081D01*
X244736Y57822D01*
X248000Y57392D01*
X251263Y57822D01*
X254303Y59081D01*
X256915Y61085D01*
X258918Y63696D01*
X259630Y65413D01*
X260900Y65160D01*
Y57500D01*
X285900D01*
Y82500D01*
X270884D01*
X249392Y103993D01*
X247930Y105114D01*
X246227Y105820D01*
X244400Y106060D01*
X77870D01*
X74215Y109715D01*
X72396Y110931D01*
X70250Y111357D01*
X57000D01*
Y128089D01*
X60850D01*
X62677Y128330D01*
X64380Y129035D01*
X65842Y130157D01*
X103195Y167510D01*
X104573Y167092D01*
X104819Y165854D01*
X106035Y164035D01*
X107854Y162819D01*
X108900Y162611D01*
X112756Y158756D01*
X114244Y157761D01*
X116000Y157412D01*
X185000D01*
X186756Y157761D01*
X188244Y158756D01*
X201244Y171756D01*
X202239Y173244D01*
X202588Y175000D01*
Y231000D01*
X202239Y232756D01*
X201244Y234244D01*
X187389Y248100D01*
X187181Y249146D01*
X187083Y249292D01*
X187682Y250412D01*
X340412D01*
Y245533D01*
X339819Y244646D01*
X339392Y242500D01*
X339819Y240354D01*
X340412Y239467D01*
Y222033D01*
X339819Y221146D01*
X339392Y219000D01*
X339819Y216854D01*
X340636Y215632D01*
X339957Y214362D01*
X296033D01*
X295146Y214955D01*
X293000Y215382D01*
X290854Y214955D01*
X289035Y213739D01*
X287819Y211920D01*
X287392Y209774D01*
X287819Y207628D01*
X289035Y205809D01*
X290854Y204593D01*
X293000Y204166D01*
X295146Y204593D01*
X296033Y205186D01*
X349774D01*
X351530Y205535D01*
X353018Y206530D01*
X380100Y233611D01*
X381146Y233819D01*
X382965Y235035D01*
X384181Y236854D01*
X384608Y239000D01*
X384181Y241146D01*
X382965Y242965D01*
X381146Y244181D01*
X379000Y244608D01*
X376854Y244181D01*
X375035Y242965D01*
X373819Y241146D01*
X373611Y240100D01*
X351752Y218240D01*
X350581Y218866D01*
X350608Y219000D01*
X350181Y221146D01*
X349588Y222033D01*
Y239467D01*
X350181Y240354D01*
X350608Y242500D01*
X350181Y244646D01*
X349588Y245533D01*
Y250412D01*
X404967D01*
X405854Y249819D01*
X408000Y249392D01*
X410146Y249819D01*
X411965Y251035D01*
X413181Y252854D01*
X413608Y255000D01*
X413181Y257146D01*
X411965Y258965D01*
Y260035D01*
X413181Y261854D01*
X413608Y264000D01*
X413181Y266146D01*
X411965Y267965D01*
X410146Y269181D01*
X408644Y269480D01*
X408256Y269739D01*
X406500Y270088D01*
X167471D01*
X165715Y269739D01*
X164227Y268744D01*
X146673Y251191D01*
X145500Y251677D01*
Y270600D01*
X146434Y271412D01*
X480099D01*
X482756Y268756D01*
X484244Y267761D01*
X486000Y267412D01*
X489966D01*
X490853Y266819D01*
X492999Y266392D01*
X495145Y266819D01*
X496032Y267412D01*
X584800D01*
X586556Y267761D01*
X588044Y268756D01*
X677789Y358500D01*
X688550D01*
X694300Y364250D01*
Y375750D01*
X688550Y381500D01*
X677050D01*
X671300Y375750D01*
Y364989D01*
X582900Y276588D01*
X572183D01*
X571796Y277427D01*
X571747Y277858D01*
X653186Y359298D01*
X654398Y358796D01*
X657400Y358401D01*
X660402Y358796D01*
X663200Y359955D01*
X665602Y361798D01*
X667445Y364200D01*
X668604Y366998D01*
X668999Y370000D01*
X668604Y373002D01*
X667445Y375800D01*
X665602Y378202D01*
X663200Y380045D01*
X660402Y381204D01*
X657400Y381599D01*
X654398Y381204D01*
X651600Y380045D01*
X649198Y378202D01*
X647355Y375800D01*
X646196Y373002D01*
X645801Y370000D01*
X646196Y366998D01*
X646698Y365786D01*
X566499Y285588D01*
X496032D01*
X495145Y286181D01*
X494099Y286389D01*
X492243Y288244D01*
X490755Y289239D01*
X488999Y289588D01*
X319587D01*
X319145Y290858D01*
X319213Y290912D01*
X350400D01*
X352156Y291261D01*
X353644Y292256D01*
X420686Y359298D01*
X421898Y358796D01*
X424900Y358401D01*
X427902Y358796D01*
X430700Y359955D01*
X433102Y361798D01*
X434945Y364200D01*
X436104Y366998D01*
X436499Y370000D01*
X436104Y373002D01*
X434945Y375799D01*
X433102Y378202D01*
X430700Y380045D01*
X427902Y381204D01*
X424900Y381599D01*
X421898Y381204D01*
X419100Y380045D01*
X416698Y378202D01*
X414855Y375799D01*
X413696Y373002D01*
X413301Y370000D01*
X413696Y366998D01*
X414198Y365786D01*
X348500Y300088D01*
X337736D01*
X337250Y301262D01*
X395286Y359298D01*
X396498Y358796D01*
X399500Y358401D01*
X402502Y358796D01*
X405300Y359955D01*
X407702Y361798D01*
X409545Y364200D01*
X410704Y366998D01*
X411099Y370000D01*
X410704Y373002D01*
X409545Y375799D01*
X407702Y378202D01*
X405300Y380045D01*
X402502Y381204D01*
X399500Y381599D01*
X396498Y381204D01*
X393700Y380045D01*
X391298Y378202D01*
X389455Y375799D01*
X388296Y373002D01*
X387901Y370000D01*
X388296Y366998D01*
X388798Y365786D01*
X330600Y307588D01*
X328034D01*
X327146Y308181D01*
X325000Y308608D01*
X322854Y308181D01*
X321035Y306965D01*
X319820Y305146D01*
X319393Y303000D01*
X319719Y301358D01*
X319671Y301233D01*
X318667Y300467D01*
X317742Y301085D01*
X315596Y301512D01*
X313450Y301085D01*
X311630Y299870D01*
X310415Y298050D01*
X309988Y295904D01*
X310415Y293758D01*
X311630Y291939D01*
X313248Y290858D01*
X313174Y289966D01*
X313037Y289588D01*
X101900D01*
X100144Y289239D01*
X98656Y288244D01*
X73900Y263489D01*
X72854Y263281D01*
X71035Y262065D01*
X69819Y260246D01*
X69392Y258100D01*
X69819Y255954D01*
X71035Y254135D01*
X72854Y252919D01*
X75000Y252492D01*
X77146Y252919D01*
X78965Y254135D01*
X80181Y255954D01*
X80389Y257000D01*
X103801Y280412D01*
X106217D01*
X106604Y279573D01*
X106653Y279142D01*
X71756Y244244D01*
X70761Y242756D01*
X70412Y241000D01*
Y201100D01*
X58173Y188862D01*
X57000Y189348D01*
Y253562D01*
X57700D01*
X59456Y253911D01*
X60944Y254905D01*
X97760Y291721D01*
X225309D01*
X227064Y292070D01*
X228553Y293064D01*
X243100Y307611D01*
X244146Y307819D01*
X245965Y309035D01*
X247181Y310854D01*
X247608Y313000D01*
X247181Y315146D01*
X245965Y316965D01*
X244146Y318181D01*
X242000Y318608D01*
X239854Y318181D01*
X238035Y316965D01*
X236819Y315146D01*
X236611Y314100D01*
X223408Y300897D01*
X95859D01*
X94103Y300548D01*
X92615Y299553D01*
X58173Y265112D01*
X57000Y265598D01*
Y325000D01*
X5000D01*
Y375000D01*
X65000D01*
Y435000D01*
X856000D01*
Y375000D01*
D02*
G37*
G36*
X402105Y260858D02*
X401386Y259588D01*
X176513D01*
X174757Y259239D01*
X173269Y258244D01*
X146684Y231659D01*
X145545Y232221D01*
X145608Y232700D01*
X145178Y235963D01*
X144957Y236497D01*
X169371Y260912D01*
X402073D01*
X402105Y260858D01*
D02*
G37*
G36*
X120500Y270600D02*
Y245600D01*
X128160D01*
X128413Y244330D01*
X126696Y243619D01*
X124085Y241615D01*
X122081Y239004D01*
X120822Y235963D01*
X120392Y232700D01*
X120822Y229437D01*
X122081Y226396D01*
X124085Y223785D01*
X126696Y221781D01*
X129423Y220652D01*
X129423Y220650D01*
Y219350D01*
X129423Y219348D01*
X126696Y218218D01*
X124085Y216215D01*
X122081Y213604D01*
X120822Y210563D01*
X120392Y207300D01*
X120697Y204982D01*
X116976Y201261D01*
X115598Y201679D01*
X115306Y203146D01*
X114090Y204965D01*
X112271Y206181D01*
X110125Y206608D01*
X107979Y206181D01*
X106160Y204965D01*
X104944Y203146D01*
X104767Y202256D01*
X89150Y186638D01*
X77883D01*
X76996Y187231D01*
X74850Y187658D01*
X72704Y187231D01*
X70884Y186015D01*
X69669Y184196D01*
X69242Y182050D01*
X69669Y179904D01*
X70884Y178085D01*
X72704Y176869D01*
X74850Y176442D01*
X76996Y176869D01*
X77883Y177462D01*
X91050D01*
X91463Y177544D01*
X92089Y176374D01*
X58270Y142555D01*
X57000Y143042D01*
Y177312D01*
X57700D01*
X59456Y177661D01*
X60944Y178655D01*
X78244Y195955D01*
X79239Y197444D01*
X79588Y199200D01*
Y239100D01*
X111901Y271412D01*
X119566D01*
X120500Y270600D01*
D02*
G37*
G36*
X176460Y246662D02*
X176819Y244854D01*
X178035Y243035D01*
X179854Y241819D01*
X180900Y241611D01*
X193412Y229100D01*
Y176901D01*
X183099Y166588D01*
X117900D01*
X115389Y169100D01*
X115181Y170146D01*
X113965Y171965D01*
X112146Y173181D01*
X110908Y173427D01*
X110490Y174805D01*
X130682Y194997D01*
X133000Y194692D01*
X136263Y195121D01*
X139304Y196381D01*
X141915Y198385D01*
X143919Y200996D01*
X145178Y204037D01*
X145608Y207300D01*
X145178Y210563D01*
X143919Y213604D01*
X142914Y214912D01*
X175244Y247242D01*
X176460Y246662D01*
D02*
G37*
G36*
X422861Y120588D02*
X377588D01*
X335000Y78000D01*
X335000Y5000D01*
X299000Y5000D01*
X299000Y74000D01*
X319000Y94000D01*
X377756Y152756D01*
X422861D01*
Y120588D01*
D02*
G37*
%LPC*%
G36*
X310750Y381500D02*
X299250D01*
X293500Y375750D01*
Y364250D01*
X299250Y358500D01*
X310750D01*
X316500Y364250D01*
Y375750D01*
X310750Y381500D01*
D02*
G37*
G36*
X583050Y381500D02*
X571550D01*
X565800Y375750D01*
Y364250D01*
X571550Y358500D01*
X583050D01*
X588800Y364250D01*
Y375750D01*
X583050Y381500D01*
D02*
G37*
G36*
X279600Y381599D02*
X276598Y381204D01*
X273800Y380045D01*
X271398Y378202D01*
X269555Y375800D01*
X268396Y373002D01*
X268001Y370000D01*
X268396Y366998D01*
X269555Y364200D01*
X271398Y361798D01*
X273800Y359955D01*
X276598Y358796D01*
X279600Y358401D01*
X282602Y358796D01*
X285400Y359955D01*
X287802Y361798D01*
X289645Y364200D01*
X290804Y366998D01*
X291199Y370000D01*
X290804Y373002D01*
X289645Y375800D01*
X287802Y378202D01*
X285400Y380045D01*
X282602Y381204D01*
X279600Y381599D01*
D02*
G37*
G36*
X551900Y381599D02*
X548898Y381204D01*
X546100Y380045D01*
X543698Y378202D01*
X541855Y375799D01*
X540696Y373002D01*
X540301Y370000D01*
X540696Y366998D01*
X541855Y364200D01*
X543698Y361798D01*
X546100Y359955D01*
X548898Y358796D01*
X551900Y358401D01*
X554902Y358796D01*
X557700Y359955D01*
X560102Y361798D01*
X561945Y364200D01*
X563104Y366998D01*
X563499Y370000D01*
X563104Y373002D01*
X561945Y375799D01*
X560102Y378202D01*
X557700Y380045D01*
X554902Y381204D01*
X551900Y381599D01*
D02*
G37*
G36*
X526500D02*
X523498Y381204D01*
X520700Y380045D01*
X518298Y378202D01*
X516455Y375799D01*
X515296Y373002D01*
X514901Y370000D01*
X515296Y366998D01*
X516455Y364200D01*
X518298Y361798D01*
X520700Y359955D01*
X523498Y358796D01*
X526500Y358401D01*
X529502Y358796D01*
X532300Y359955D01*
X534702Y361798D01*
X536545Y364200D01*
X537704Y366998D01*
X538099Y370000D01*
X537704Y373002D01*
X536545Y375799D01*
X534702Y378202D01*
X532300Y380045D01*
X529502Y381204D01*
X526500Y381599D01*
D02*
G37*
G36*
X501100D02*
X498098Y381204D01*
X495300Y380045D01*
X492898Y378202D01*
X491055Y375799D01*
X489896Y373002D01*
X489501Y370000D01*
X489896Y366998D01*
X491055Y364200D01*
X492898Y361798D01*
X495300Y359955D01*
X498098Y358796D01*
X501100Y358401D01*
X504102Y358796D01*
X506900Y359955D01*
X509302Y361798D01*
X511145Y364200D01*
X512304Y366998D01*
X512699Y370000D01*
X512304Y373002D01*
X511145Y375799D01*
X509302Y378202D01*
X506900Y380045D01*
X504102Y381204D01*
X501100Y381599D01*
D02*
G37*
G36*
X475700D02*
X472698Y381204D01*
X469900Y380045D01*
X467498Y378202D01*
X465655Y375799D01*
X464496Y373002D01*
X464101Y370000D01*
X464496Y366998D01*
X465655Y364200D01*
X467498Y361798D01*
X469900Y359955D01*
X472698Y358796D01*
X475700Y358401D01*
X478702Y358796D01*
X481500Y359955D01*
X483902Y361798D01*
X485745Y364200D01*
X486904Y366998D01*
X487299Y370000D01*
X486904Y373002D01*
X485745Y375799D01*
X483902Y378202D01*
X481500Y380045D01*
X478702Y381204D01*
X475700Y381599D01*
D02*
G37*
G36*
X450300D02*
X447298Y381204D01*
X444500Y380045D01*
X442098Y378202D01*
X440255Y375799D01*
X439096Y373002D01*
X438701Y370000D01*
X439096Y366998D01*
X440255Y364200D01*
X442098Y361798D01*
X444500Y359955D01*
X447298Y358796D01*
X450300Y358401D01*
X453302Y358796D01*
X456100Y359955D01*
X458502Y361798D01*
X460345Y364200D01*
X461504Y366998D01*
X461899Y370000D01*
X461504Y373002D01*
X460345Y375799D01*
X458502Y378202D01*
X456100Y380045D01*
X453302Y381204D01*
X450300Y381599D01*
D02*
G37*
G36*
X374100D02*
X371098Y381204D01*
X368300Y380045D01*
X365898Y378202D01*
X364055Y375799D01*
X362896Y373002D01*
X362501Y370000D01*
X362896Y366998D01*
X364055Y364200D01*
X365898Y361798D01*
X368300Y359955D01*
X371098Y358796D01*
X374100Y358401D01*
X377102Y358796D01*
X379900Y359955D01*
X382302Y361798D01*
X384145Y364200D01*
X385304Y366998D01*
X385699Y370000D01*
X385304Y373002D01*
X384145Y375799D01*
X382302Y378202D01*
X379900Y380045D01*
X377102Y381204D01*
X374100Y381599D01*
D02*
G37*
G36*
X760400Y381599D02*
X757398Y381204D01*
X754600Y380045D01*
X752198Y378202D01*
X750355Y375800D01*
X749196Y373002D01*
X748801Y370000D01*
X749196Y366998D01*
X749698Y365786D01*
X648498Y264587D01*
X504032D01*
X503145Y265180D01*
X500999Y265607D01*
X498853Y265180D01*
X497034Y263964D01*
X496209Y262730D01*
X495818Y262145D01*
X495391Y259999D01*
X495818Y257853D01*
X497034Y256034D01*
X497259Y255883D01*
Y254814D01*
X497092Y254467D01*
X495918Y252710D01*
X495491Y250564D01*
X495918Y248418D01*
X496996Y246805D01*
X496736Y245929D01*
X496484Y245505D01*
X494854Y245181D01*
X493035Y243965D01*
X491819Y242146D01*
X491392Y240000D01*
X491819Y237854D01*
X492412Y236967D01*
Y181463D01*
X491767Y180678D01*
X491266Y180350D01*
X461794D01*
X460038Y180000D01*
X458549Y179006D01*
X452940Y173397D01*
X451853Y173181D01*
X450034Y171965D01*
X448818Y170146D01*
X448391Y168000D01*
X448818Y165854D01*
X450034Y164034D01*
X450360Y163816D01*
X450350Y163605D01*
X449979Y162544D01*
X448154Y162181D01*
X446335Y160965D01*
X445119Y159146D01*
X444692Y157000D01*
X445119Y154854D01*
X446335Y153035D01*
X448154Y151819D01*
X449200Y151611D01*
X453056Y147756D01*
X454544Y146761D01*
X456300Y146412D01*
X523000D01*
X524756Y146761D01*
X526244Y147756D01*
X527901Y149412D01*
X555116D01*
X556772Y147756D01*
X558260Y146761D01*
X560016Y146412D01*
X688967D01*
X689854Y145819D01*
X692000Y145392D01*
X694146Y145819D01*
X695965Y147035D01*
X697181Y148854D01*
X697608Y151000D01*
X697181Y153146D01*
X695965Y154965D01*
X694146Y156181D01*
X692000Y156608D01*
X689854Y156181D01*
X688967Y155588D01*
X561917D01*
X560260Y157244D01*
X558772Y158239D01*
X557016Y158588D01*
X526000D01*
X524244Y158239D01*
X522756Y157244D01*
X521100Y155588D01*
X458200D01*
X455689Y158100D01*
X455481Y159146D01*
X454265Y160965D01*
X453938Y161184D01*
X453949Y161395D01*
X454320Y162456D01*
X456145Y162819D01*
X457964Y164034D01*
X459180Y165854D01*
X459380Y166859D01*
X463694Y171173D01*
X489597D01*
X498603Y162167D01*
X500092Y161173D01*
X501847Y160824D01*
X513251D01*
X515006Y161173D01*
X516495Y162167D01*
X519151Y164823D01*
X529100D01*
X531755Y162167D01*
X533244Y161173D01*
X535000Y160824D01*
X544029D01*
X545785Y161173D01*
X547273Y162167D01*
X550518Y165412D01*
X693706D01*
X762312Y96806D01*
Y82936D01*
X760876Y81500D01*
X753150D01*
X747400Y75750D01*
Y64250D01*
X753150Y58500D01*
X764650D01*
X770400Y64250D01*
Y75750D01*
X769251Y76898D01*
X770144Y77791D01*
X770153Y77804D01*
X771417Y77929D01*
X774047Y75299D01*
X773096Y73002D01*
X772701Y70000D01*
X773096Y66998D01*
X774255Y64200D01*
X776098Y61798D01*
X778500Y59955D01*
X781298Y58796D01*
X784300Y58401D01*
X787302Y58796D01*
X790100Y59955D01*
X792502Y61798D01*
X794345Y64200D01*
X795504Y66998D01*
X795899Y70000D01*
X795504Y73002D01*
X794345Y75800D01*
X792502Y78202D01*
X790100Y80045D01*
X787302Y81204D01*
X784300Y81599D01*
X781298Y81204D01*
X781171Y81152D01*
X777988Y84335D01*
Y101399D01*
X777639Y103155D01*
X776644Y104643D01*
X701043Y180244D01*
X699555Y181239D01*
X697799Y181588D01*
X503000D01*
X501588Y183001D01*
Y236967D01*
X502181Y237854D01*
X502608Y240000D01*
X502181Y242146D01*
X501103Y243759D01*
X501363Y244635D01*
X501615Y245059D01*
X503245Y245383D01*
X504132Y245976D01*
X666364D01*
X668120Y246325D01*
X669608Y247319D01*
X780789Y358500D01*
X791550D01*
X797300Y364250D01*
Y375750D01*
X791550Y381500D01*
X780050D01*
X774300Y375750D01*
Y364989D01*
X664463Y255152D01*
X653531D01*
X653145Y256422D01*
X653643Y256755D01*
X756186Y359298D01*
X757398Y358796D01*
X760400Y358401D01*
X763402Y358796D01*
X766200Y359955D01*
X768602Y361798D01*
X770445Y364200D01*
X771604Y366998D01*
X771999Y370000D01*
X771604Y373002D01*
X770445Y375800D01*
X768602Y378202D01*
X766200Y380045D01*
X763402Y381204D01*
X760400Y381599D01*
D02*
G37*
G36*
X778000Y238608D02*
X775854Y238181D01*
X774967Y237588D01*
X562192D01*
X560437Y237239D01*
X558948Y236244D01*
X528138Y205435D01*
X527144Y203946D01*
X526795Y202190D01*
Y195606D01*
X525819Y194146D01*
X525392Y192000D01*
X525819Y189854D01*
X527035Y188035D01*
X528854Y186819D01*
X531000Y186392D01*
X533146Y186819D01*
X534649Y187823D01*
X535500Y187953D01*
X536351Y187823D01*
X537854Y186819D01*
X540000Y186392D01*
X542146Y186819D01*
X543649Y187823D01*
X544500Y187953D01*
X545351Y187823D01*
X546854Y186819D01*
X549000Y186392D01*
X551146Y186819D01*
X552965Y188035D01*
X554181Y189854D01*
X554608Y192000D01*
X554181Y194146D01*
X553969Y194464D01*
D01*
X561917Y202412D01*
X774967D01*
X775854Y201819D01*
X778000Y201392D01*
X780146Y201819D01*
X781965Y203035D01*
X783181Y204854D01*
X783608Y207000D01*
X783181Y209146D01*
X781965Y210965D01*
X780146Y212181D01*
X778000Y212608D01*
X775854Y212181D01*
X774967Y211588D01*
X560989D01*
X560463Y212858D01*
X563017Y215412D01*
X636967D01*
X637854Y214819D01*
X640000Y214392D01*
X642146Y214819D01*
X643965Y216035D01*
X645181Y217854D01*
X645608Y220000D01*
X645181Y222146D01*
X643965Y223965D01*
X642146Y225181D01*
X640000Y225608D01*
X637854Y225181D01*
X636967Y224588D01*
X562065D01*
X561539Y225858D01*
X564093Y228412D01*
X774967D01*
X775854Y227819D01*
X778000Y227392D01*
X780146Y227819D01*
X781965Y229035D01*
X783181Y230854D01*
X783608Y233000D01*
X783181Y235146D01*
X781965Y236965D01*
X780146Y238181D01*
X778000Y238608D01*
D02*
G37*
G36*
X232000Y236608D02*
X229854Y236181D01*
X228035Y234965D01*
X226819Y233146D01*
X226392Y231000D01*
X226819Y228854D01*
X228035Y227035D01*
X229854Y225819D01*
X232000Y225392D01*
X234146Y225819D01*
X235033Y226412D01*
X235638D01*
X248081Y213969D01*
X249569Y212974D01*
X251325Y212625D01*
X256746D01*
X257633Y212032D01*
X259779Y211605D01*
X261925Y212032D01*
X263745Y213248D01*
X264960Y215067D01*
X265387Y217213D01*
X264960Y219359D01*
X263745Y221178D01*
X261925Y222394D01*
X259779Y222821D01*
X257633Y222394D01*
X256746Y221801D01*
X253226D01*
X240783Y234244D01*
X239294Y235239D01*
X237538Y235588D01*
X235033D01*
X234146Y236181D01*
X232000Y236608D01*
D02*
G37*
G36*
X531000Y231608D02*
X528854Y231181D01*
X527035Y229965D01*
X525819Y228146D01*
X525611Y227100D01*
X509756Y211244D01*
X508761Y209756D01*
X508412Y208000D01*
Y196033D01*
X507819Y195146D01*
X507392Y193000D01*
X507819Y190854D01*
X509035Y189035D01*
X510854Y187819D01*
X513000Y187392D01*
X515146Y187819D01*
X516965Y189035D01*
X518181Y190854D01*
X518608Y193000D01*
X518181Y195146D01*
X517588Y196033D01*
Y206099D01*
X532100Y220611D01*
X533146Y220819D01*
X534965Y222035D01*
X536181Y223854D01*
X536608Y226000D01*
X536181Y228146D01*
X534965Y229965D01*
X533146Y231181D01*
X531000Y231608D01*
D02*
G37*
G36*
X839800Y257900D02*
X814800D01*
Y232900D01*
X822461D01*
X822713Y231630D01*
X820996Y230919D01*
X818385Y228915D01*
X816381Y226304D01*
X815122Y223263D01*
X814692Y220000D01*
X815122Y216737D01*
X816381Y213696D01*
X818385Y211085D01*
X820996Y209081D01*
X823723Y207952D01*
X823723Y207950D01*
Y206650D01*
X823723Y206648D01*
X820996Y205518D01*
X818385Y203515D01*
X816381Y200904D01*
X815122Y197863D01*
X814692Y194600D01*
X815122Y191337D01*
X816381Y188296D01*
X818385Y185685D01*
X820996Y183681D01*
X824037Y182421D01*
X827300Y181992D01*
X830563Y182421D01*
X833604Y183681D01*
X836215Y185685D01*
X838219Y188296D01*
X839478Y191337D01*
X839908Y194600D01*
X839478Y197863D01*
X838219Y200904D01*
X836215Y203515D01*
X833604Y205518D01*
X830877Y206648D01*
X830877Y206650D01*
Y207950D01*
X830877Y207952D01*
X833604Y209081D01*
X836215Y211085D01*
X838219Y213696D01*
X839478Y216737D01*
X839908Y220000D01*
X839478Y223263D01*
X838219Y226304D01*
X836215Y228915D01*
X833604Y230919D01*
X831887Y231630D01*
X832140Y232900D01*
X839800D01*
Y257900D01*
D02*
G37*
G36*
X316000Y136039D02*
X130000D01*
X129220Y135884D01*
X128558Y135442D01*
X128116Y134780D01*
X127961Y134000D01*
Y116000D01*
X128116Y115220D01*
X128558Y114558D01*
X129220Y114116D01*
X130000Y113961D01*
X301961D01*
Y100000D01*
X302116Y99220D01*
X302558Y98558D01*
X303220Y98116D01*
X304000Y97961D01*
X316000D01*
X316780Y98116D01*
X317442Y98558D01*
X317884Y99220D01*
X318039Y100000D01*
Y134000D01*
X317884Y134780D01*
X317442Y135442D01*
X316780Y135884D01*
X316000Y136039D01*
D02*
G37*
G36*
X627950Y81500D02*
X616450D01*
X610700Y75750D01*
Y64250D01*
X616450Y58500D01*
X627950D01*
X633700Y64250D01*
Y75750D01*
X627950Y81500D01*
D02*
G37*
G36*
X148050Y81500D02*
X136550D01*
X130800Y75750D01*
Y64250D01*
X136550Y58500D01*
X148050D01*
X153800Y64250D01*
Y75750D01*
X148050Y81500D01*
D02*
G37*
G36*
X698400Y81599D02*
X695398Y81204D01*
X692600Y80045D01*
X690198Y78202D01*
X688355Y75800D01*
X687196Y73002D01*
X686801Y70000D01*
X687196Y66998D01*
X688355Y64200D01*
X690198Y61798D01*
X692600Y59955D01*
X695398Y58796D01*
X698400Y58401D01*
X701402Y58796D01*
X704200Y59955D01*
X706602Y61798D01*
X708445Y64200D01*
X709604Y66998D01*
X709999Y70000D01*
X709604Y73002D01*
X708445Y75800D01*
X706602Y78202D01*
X704200Y80045D01*
X701402Y81204D01*
X698400Y81599D01*
D02*
G37*
G36*
X673000D02*
X669998Y81204D01*
X667200Y80045D01*
X664798Y78202D01*
X662955Y75800D01*
X661796Y73002D01*
X661401Y70000D01*
X661796Y66998D01*
X662955Y64200D01*
X664798Y61798D01*
X667200Y59955D01*
X669998Y58796D01*
X673000Y58401D01*
X676002Y58796D01*
X678800Y59955D01*
X681202Y61798D01*
X683045Y64200D01*
X684204Y66998D01*
X684599Y70000D01*
X684204Y73002D01*
X683045Y75800D01*
X681202Y78202D01*
X678800Y80045D01*
X676002Y81204D01*
X673000Y81599D01*
D02*
G37*
G36*
X647600D02*
X644598Y81204D01*
X641800Y80045D01*
X639398Y78202D01*
X637555Y75800D01*
X636396Y73002D01*
X636001Y70000D01*
X636396Y66998D01*
X637555Y64200D01*
X639398Y61798D01*
X641800Y59955D01*
X644598Y58796D01*
X647600Y58401D01*
X650602Y58796D01*
X653400Y59955D01*
X655802Y61798D01*
X657645Y64200D01*
X658804Y66998D01*
X659199Y70000D01*
X658804Y73002D01*
X657645Y75800D01*
X655802Y78202D01*
X653400Y80045D01*
X650602Y81204D01*
X647600Y81599D01*
D02*
G37*
G36*
X809700Y81599D02*
X806698Y81204D01*
X803900Y80045D01*
X801498Y78202D01*
X799655Y75800D01*
X798496Y73002D01*
X798101Y70000D01*
X798496Y66998D01*
X799655Y64200D01*
X801498Y61798D01*
X803900Y59955D01*
X806698Y58796D01*
X809700Y58401D01*
X812702Y58796D01*
X815500Y59955D01*
X817902Y61798D01*
X819745Y64200D01*
X820904Y66998D01*
X821299Y70000D01*
X820904Y73002D01*
X819745Y75800D01*
X817902Y78202D01*
X815500Y80045D01*
X812702Y81204D01*
X809700Y81599D01*
D02*
G37*
G36*
X551900Y81599D02*
X548898Y81204D01*
X546100Y80045D01*
X543698Y78202D01*
X541855Y75799D01*
X540696Y73002D01*
X540301Y70000D01*
X540696Y66998D01*
X541855Y64200D01*
X543698Y61798D01*
X546100Y59955D01*
X548898Y58796D01*
X551900Y58401D01*
X554902Y58796D01*
X557700Y59955D01*
X560102Y61798D01*
X561945Y64200D01*
X563104Y66998D01*
X563499Y70000D01*
X563104Y73002D01*
X561945Y75799D01*
X560102Y78202D01*
X557700Y80045D01*
X554902Y81204D01*
X551900Y81599D01*
D02*
G37*
G36*
X526500D02*
X523498Y81204D01*
X520700Y80045D01*
X518298Y78202D01*
X516455Y75799D01*
X515296Y73002D01*
X514901Y70000D01*
X515296Y66998D01*
X516455Y64200D01*
X518298Y61798D01*
X520700Y59955D01*
X523498Y58796D01*
X526500Y58401D01*
X529502Y58796D01*
X532300Y59955D01*
X534702Y61798D01*
X536545Y64200D01*
X537704Y66998D01*
X538099Y70000D01*
X537704Y73002D01*
X536545Y75799D01*
X534702Y78202D01*
X532300Y80045D01*
X529502Y81204D01*
X526500Y81599D01*
D02*
G37*
G36*
X501100D02*
X498098Y81204D01*
X495300Y80045D01*
X492898Y78202D01*
X491055Y75799D01*
X489896Y73002D01*
X489501Y70000D01*
X489896Y66998D01*
X491055Y64200D01*
X492898Y61798D01*
X495300Y59955D01*
X498098Y58796D01*
X501100Y58401D01*
X504102Y58796D01*
X506900Y59955D01*
X509302Y61798D01*
X511145Y64200D01*
X512304Y66998D01*
X512699Y70000D01*
X512304Y73002D01*
X511145Y75799D01*
X509302Y78202D01*
X506900Y80045D01*
X504102Y81204D01*
X501100Y81599D01*
D02*
G37*
G36*
X475700D02*
X472698Y81204D01*
X469900Y80045D01*
X467498Y78202D01*
X465655Y75799D01*
X464496Y73002D01*
X464101Y70000D01*
X464496Y66998D01*
X465655Y64200D01*
X467498Y61798D01*
X469900Y59955D01*
X472698Y58796D01*
X475700Y58401D01*
X478702Y58796D01*
X481500Y59955D01*
X483902Y61798D01*
X485745Y64200D01*
X486904Y66998D01*
X487299Y70000D01*
X486904Y73002D01*
X485745Y75799D01*
X483902Y78202D01*
X481500Y80045D01*
X478702Y81204D01*
X475700Y81599D01*
D02*
G37*
G36*
X450300D02*
X447298Y81204D01*
X444500Y80045D01*
X442098Y78202D01*
X440255Y75799D01*
X439096Y73002D01*
X438701Y70000D01*
X439096Y66998D01*
X440255Y64200D01*
X442098Y61798D01*
X444500Y59955D01*
X447298Y58796D01*
X450300Y58401D01*
X453302Y58796D01*
X456100Y59955D01*
X458502Y61798D01*
X460345Y64200D01*
X461504Y66998D01*
X461899Y70000D01*
X461504Y73002D01*
X460345Y75799D01*
X458502Y78202D01*
X456100Y80045D01*
X453302Y81204D01*
X450300Y81599D01*
D02*
G37*
%LPD*%
G36*
X316000Y100000D02*
X304000D01*
Y116000D01*
X130000D01*
Y134000D01*
X316000D01*
Y100000D01*
D02*
G37*
D43*
X32250Y334350D02*
D03*
Y308950D02*
D03*
Y283550D02*
D03*
Y258150D02*
D03*
Y232750D02*
D03*
Y207350D02*
D03*
Y181950D02*
D03*
Y156550D02*
D03*
Y131150D02*
D03*
Y105750D02*
D03*
D49*
X517250Y169411D02*
X531000D01*
X513251Y165412D02*
X517250Y169411D01*
X501847Y165412D02*
X513251D01*
X548617Y170000D02*
X695607D01*
X544029Y165412D02*
X548617Y170000D01*
X535000Y165412D02*
X544029D01*
X531000Y169411D02*
X535000Y165412D01*
X491498Y175762D02*
X501847Y165412D01*
X695607Y170000D02*
X766900Y98707D01*
X560016Y151000D02*
X692000D01*
X456300D02*
X523000D01*
X526000Y154000D01*
X557016D01*
X560016Y151000D01*
X450300Y157000D02*
X456300Y151000D01*
X454032Y168000D02*
X461794Y175762D01*
X491498D01*
X453999Y168000D02*
X454032D01*
X406500Y265500D02*
X408000Y264000D01*
X167471Y265500D02*
X406500D01*
X134671Y232700D02*
X167471Y265500D01*
X766900Y81035D02*
Y98707D01*
X758900Y73035D02*
X766900Y81035D01*
X758900Y70000D02*
Y73035D01*
X773400Y82435D02*
X784300Y71534D01*
Y70000D02*
Y71534D01*
X198000Y175000D02*
Y231000D01*
X185000Y162000D02*
X198000Y175000D01*
X116000Y162000D02*
X185000D01*
X182000Y247000D02*
X198000Y231000D01*
X110000Y168000D02*
X116000Y162000D01*
X110000Y201000D02*
X110125D01*
X91050Y182050D02*
X110000Y201000D01*
X74850Y182050D02*
X91050D01*
X57700Y181900D02*
X75000Y199200D01*
X32300Y181900D02*
X57700D01*
X75000Y199200D02*
Y241000D01*
X32250Y181950D02*
X32300Y181900D01*
X138542Y216901D02*
Y217029D01*
X133000Y211359D02*
X138542Y216901D01*
X133000Y207300D02*
Y211359D01*
X138542Y217029D02*
X176513Y255000D01*
X345000D01*
X237538Y231000D02*
X251325Y217213D01*
X259779D01*
X513000Y193000D02*
Y208000D01*
X531000Y226000D01*
X531383Y202190D02*
X562192Y233000D01*
X531383Y192383D02*
Y202190D01*
X531000Y192000D02*
X531383Y192383D01*
X562192Y233000D02*
X778000D01*
X325000Y303000D02*
X332500D01*
X316000Y295500D02*
X350400D01*
X315596Y295904D02*
X316000Y295500D01*
X350400D02*
X424900Y370000D01*
X332500Y303000D02*
X399500Y370000D01*
X345000Y242500D02*
Y255000D01*
Y219000D02*
Y242500D01*
Y255000D02*
X408000D01*
X95859Y296309D02*
X225309D01*
X57700Y258150D02*
X95859Y296309D01*
X32250Y258150D02*
X57700D01*
X225309Y296309D02*
X242000Y313000D01*
X75000Y241000D02*
X110000Y276000D01*
X486000Y272000D02*
X492999D01*
X482000Y276000D02*
X486000Y272000D01*
X110000Y276000D02*
X482000D01*
X488999Y285000D02*
X492999Y281000D01*
X75000Y258100D02*
X101900Y285000D01*
X488999D01*
X133000Y232700D02*
X134671D01*
X560016Y207000D02*
X778000D01*
X549000Y195984D02*
X560016Y207000D01*
X549000Y192000D02*
Y195984D01*
X778000Y207000D02*
X778000Y207000D01*
X513692Y103000D02*
X548617Y137925D01*
Y141617D01*
X549000Y142000D01*
X540000Y198884D02*
X561116Y220000D01*
X640000D01*
X540000Y192000D02*
Y198884D01*
X457900Y103000D02*
X513692D01*
X531000Y138692D02*
Y142000D01*
X539616Y141616D02*
X539999Y141999D01*
X508308Y116000D02*
X531000Y138692D01*
X511000Y109500D02*
X539616Y138116D01*
Y141616D01*
X420100Y116000D02*
X508308D01*
X424900Y70000D02*
X457900Y103000D01*
X439000Y109500D02*
X511000D01*
X399500Y70000D02*
X439000Y109500D01*
X374100Y70000D02*
X420100Y116000D01*
X568400Y281000D02*
X657400Y370000D01*
X492999Y281000D02*
X568400D01*
X584800Y272000D02*
X682800Y370000D01*
X492999Y272000D02*
X584800D01*
X650399Y259999D02*
X760400Y370000D01*
X500999Y259999D02*
X650399D01*
X666364Y250564D02*
X785800Y370000D01*
X501099Y250564D02*
X666364D01*
X501100Y177000D02*
X697799D01*
X773400Y101399D01*
Y82435D02*
Y101399D01*
X497000Y181100D02*
X501100Y177000D01*
X497000Y181100D02*
Y240000D01*
X349774Y209774D02*
X379000Y239000D01*
X293000Y209774D02*
X349774D01*
X232000Y231000D02*
X237538D01*
D50*
X70250Y105750D02*
X77000Y99000D01*
X32250Y105750D02*
X70250D01*
D51*
X60850Y135150D02*
X133000Y207300D01*
X36250Y135150D02*
X60850D01*
X32250Y131150D02*
X36250Y135150D01*
X77000Y99000D02*
X244400D01*
X273400Y70000D01*
D53*
X827300Y245400D02*
D03*
X133000Y258100D02*
D03*
D54*
X827300Y194600D02*
D03*
Y220000D02*
D03*
X852700D02*
D03*
Y194600D02*
D03*
Y245400D02*
D03*
X222600Y70000D02*
D03*
X248000D02*
D03*
X133000Y207300D02*
D03*
Y232700D02*
D03*
Y181900D02*
D03*
D55*
X273400Y70000D02*
D03*
D56*
X348700D02*
D03*
X785800Y370000D02*
D03*
X682800D02*
D03*
X577300Y370000D02*
D03*
X305000Y370000D02*
D03*
X622200Y70000D02*
D03*
X758900Y70000D02*
D03*
X142300D02*
D03*
D57*
X374100Y70000D02*
D03*
X399500D02*
D03*
X424900D02*
D03*
X450300D02*
D03*
X475700D02*
D03*
X501100D02*
D03*
X526500D02*
D03*
X551900D02*
D03*
X577300D02*
D03*
X735000Y370000D02*
D03*
X760400D02*
D03*
X632000D02*
D03*
X657400D02*
D03*
X551900Y370000D02*
D03*
X526500D02*
D03*
X501100D02*
D03*
X475700D02*
D03*
X450300D02*
D03*
X424900D02*
D03*
X399500D02*
D03*
X374100D02*
D03*
X348700D02*
D03*
X254200Y370000D02*
D03*
X279600D02*
D03*
X723800Y70000D02*
D03*
X647600D02*
D03*
X673000D02*
D03*
X698400D02*
D03*
X784300Y70000D02*
D03*
X809700D02*
D03*
X835100D02*
D03*
X167700D02*
D03*
D58*
X453999Y168000D02*
D03*
X450300Y157000D02*
D03*
X463000Y220000D02*
D03*
Y207500D02*
D03*
X450500D02*
D03*
Y220000D02*
D03*
Y232500D02*
D03*
X463000D02*
D03*
X475500Y232500D02*
D03*
Y220000D02*
D03*
Y207500D02*
D03*
X100000Y419999D02*
D03*
X107500Y404999D02*
D03*
X100000Y389999D02*
D03*
X107500Y374999D02*
D03*
X100000Y359999D02*
D03*
X107500Y344999D02*
D03*
X100000Y329999D02*
D03*
X107500Y314999D02*
D03*
X85000Y419999D02*
D03*
X92500Y404999D02*
D03*
X85000Y389999D02*
D03*
X92500Y374999D02*
D03*
X85000Y359999D02*
D03*
X92500Y344999D02*
D03*
X85000Y329999D02*
D03*
X92500Y314999D02*
D03*
X85000Y300000D02*
D03*
X70000Y419999D02*
D03*
X77500Y404999D02*
D03*
X70000Y389999D02*
D03*
X77500Y374999D02*
D03*
X70000Y359999D02*
D03*
X77500Y344999D02*
D03*
X70000Y329999D02*
D03*
X77500Y314999D02*
D03*
X70000Y300000D02*
D03*
X55000Y359999D02*
D03*
X40000D02*
D03*
X25000D02*
D03*
X10000D02*
D03*
X184250Y380000D02*
D03*
X199750D02*
D03*
X217001D02*
D03*
X232000D02*
D03*
Y362321D02*
D03*
X217001D02*
D03*
X199750D02*
D03*
X184250D02*
D03*
Y348000D02*
D03*
X199750D02*
D03*
X216850D02*
D03*
X232000D02*
D03*
X290854Y322950D02*
D03*
X302149D02*
D03*
Y308608D02*
D03*
X290854D02*
D03*
X418900Y308379D02*
D03*
Y298000D02*
D03*
X409000Y298541D02*
D03*
Y308379D02*
D03*
X399000D02*
D03*
X409000Y323000D02*
D03*
X403000Y316000D02*
D03*
X400000Y323892D02*
D03*
X392859Y317130D02*
D03*
X387000Y309967D02*
D03*
X579999Y44999D02*
D03*
X565000D02*
D03*
X550000D02*
D03*
X535000D02*
D03*
X520000D02*
D03*
X505000D02*
D03*
X490000D02*
D03*
X475000D02*
D03*
X460000D02*
D03*
X445000D02*
D03*
X430000D02*
D03*
X415000D02*
D03*
X400000D02*
D03*
X385000D02*
D03*
X370000D02*
D03*
X355000D02*
D03*
X902499Y359999D02*
D03*
X894999Y344999D02*
D03*
X902499Y329999D02*
D03*
X894999Y314999D02*
D03*
X902499Y300000D02*
D03*
X894999Y285000D02*
D03*
X902499Y270000D02*
D03*
X894999Y255000D02*
D03*
X902499Y240000D02*
D03*
X894999Y225000D02*
D03*
X902499Y210000D02*
D03*
X894999Y195000D02*
D03*
X902499Y180000D02*
D03*
X894999Y165000D02*
D03*
X902499Y150000D02*
D03*
X894999Y135000D02*
D03*
X902499Y120000D02*
D03*
X894999Y105000D02*
D03*
X902499Y90000D02*
D03*
X894999Y74999D02*
D03*
X887499Y359999D02*
D03*
X879999Y344999D02*
D03*
X887499Y329999D02*
D03*
X879999Y314999D02*
D03*
X887499Y300000D02*
D03*
X879999Y285000D02*
D03*
X887499Y270000D02*
D03*
X879999Y255000D02*
D03*
X887499Y240000D02*
D03*
X879999Y225000D02*
D03*
X887499Y210000D02*
D03*
X879999Y195000D02*
D03*
X887499Y180000D02*
D03*
X879999Y165000D02*
D03*
X887499Y150000D02*
D03*
X879999Y135000D02*
D03*
X887499Y120000D02*
D03*
X879999Y105000D02*
D03*
X887499Y90000D02*
D03*
X879999Y74999D02*
D03*
X872499Y359999D02*
D03*
X864999Y344999D02*
D03*
X872499Y329999D02*
D03*
X864999Y314999D02*
D03*
X872499Y300000D02*
D03*
X864999Y285000D02*
D03*
X872499Y270000D02*
D03*
Y240000D02*
D03*
Y210000D02*
D03*
Y180000D02*
D03*
X864999Y165000D02*
D03*
X872499Y150000D02*
D03*
Y120000D02*
D03*
Y90000D02*
D03*
X849999Y404999D02*
D03*
Y374999D02*
D03*
X857499Y359999D02*
D03*
X849999Y344999D02*
D03*
X857499Y329999D02*
D03*
X849999Y314999D02*
D03*
X857499Y300000D02*
D03*
X849999Y285000D02*
D03*
X857499Y270000D02*
D03*
X579999Y120000D02*
D03*
Y90000D02*
D03*
X565000Y120000D02*
D03*
X572499Y105000D02*
D03*
X565000Y90000D02*
D03*
X550000Y120000D02*
D03*
X557499Y105000D02*
D03*
X834999Y44999D02*
D03*
X819999D02*
D03*
X804999D02*
D03*
X789999D02*
D03*
X774999D02*
D03*
X759999D02*
D03*
X744999D02*
D03*
X729999D02*
D03*
X714999D02*
D03*
X699999D02*
D03*
X684999D02*
D03*
X669999D02*
D03*
X654999D02*
D03*
X639999D02*
D03*
X624999D02*
D03*
X318000Y232500D02*
D03*
X318000Y220000D02*
D03*
X295988Y199000D02*
D03*
X358000Y237912D02*
D03*
X343001Y171001D02*
D03*
X347501Y162001D02*
D03*
X343001Y153001D02*
D03*
X334001Y171001D02*
D03*
X338501Y162001D02*
D03*
X334001Y153001D02*
D03*
X325001Y171001D02*
D03*
X329501Y162001D02*
D03*
X325001Y153001D02*
D03*
X320501Y162001D02*
D03*
X307001Y171001D02*
D03*
X311501Y162001D02*
D03*
X307001Y153001D02*
D03*
X298001Y171001D02*
D03*
X302501Y162001D02*
D03*
X289001Y171001D02*
D03*
X293501Y162001D02*
D03*
X280001Y171001D02*
D03*
X284501Y162001D02*
D03*
X271001Y171001D02*
D03*
X275501Y162001D02*
D03*
X262001Y171001D02*
D03*
X266501Y162001D02*
D03*
X226001Y171001D02*
D03*
X217001D02*
D03*
X221501Y162001D02*
D03*
X208001Y171001D02*
D03*
X212501Y162001D02*
D03*
X203501D02*
D03*
X181001Y189001D02*
D03*
X185501Y180001D02*
D03*
X181001Y171001D02*
D03*
X77000Y127000D02*
D03*
Y118000D02*
D03*
X67000D02*
D03*
X394000Y298000D02*
D03*
X236000Y245000D02*
D03*
X326000Y13000D02*
D03*
X315596D02*
D03*
X305000D02*
D03*
X326000Y23000D02*
D03*
X315596D02*
D03*
X305000D02*
D03*
X414000Y127000D02*
D03*
X404201D02*
D03*
X394000D02*
D03*
X394000Y136000D02*
D03*
X404201Y135888D02*
D03*
X414000D02*
D03*
Y146000D02*
D03*
X404201D02*
D03*
X394001D02*
D03*
X110125Y201000D02*
D03*
X74850Y182050D02*
D03*
X110000Y168000D02*
D03*
X182000Y247000D02*
D03*
X77000Y99000D02*
D03*
X259779Y217213D02*
D03*
X394000Y190000D02*
D03*
X147000Y127000D02*
D03*
X142000Y120000D02*
D03*
X137000Y127000D02*
D03*
X310000D02*
D03*
Y116500D02*
D03*
Y105750D02*
D03*
X531000Y226000D02*
D03*
X513000Y193000D02*
D03*
X315596Y295904D02*
D03*
X325000Y303000D02*
D03*
X345000Y242500D02*
D03*
Y219000D02*
D03*
X450500Y124000D02*
D03*
X242000Y313000D02*
D03*
X75000Y258100D02*
D03*
X408000Y255000D02*
D03*
Y264000D02*
D03*
X778000Y207000D02*
D03*
X640000Y220000D02*
D03*
X778000Y233000D02*
D03*
X549000Y142000D02*
D03*
Y192000D02*
D03*
X531000Y142000D02*
D03*
X539999Y141999D02*
D03*
X531000Y192000D02*
D03*
X540000D02*
D03*
X492999Y272000D02*
D03*
Y281000D02*
D03*
X500999Y259999D02*
D03*
X501099Y250564D02*
D03*
X692000Y151000D02*
D03*
X497000Y240000D02*
D03*
X379000Y239000D02*
D03*
X293000Y209774D02*
D03*
X232000Y231000D02*
D03*
M02*
